<svg width="1225" height="572" viewBox="0 0 1225 572" fill="none" xmlns="http://www.w3.org/2000/svg">
<path d="M1093.24 89.3442C1085.97 89.4722 1079.71 87.7227 1074.44 84.0956C1069.17 80.4685 1066.45 75.9699 1066.27 70.5998C1066.12 65.9968 1067.87 61.8624 1071.5 58.1965C1075.14 54.5306 1079.98 52.1426 1086.01 51.0324C1087.83 45.5681 1091.68 41.1013 1097.56 37.6321C1103.44 34.1629 1110.17 32.3614 1117.75 32.2278C1127.09 32.0632 1135.09 34.3278 1141.75 39.0215C1148.41 43.7175 1151.86 49.5178 1152.08 56.4223C1157.6 56.7973 1162.23 58.4718 1165.96 61.4457C1169.69 64.4221 1171.62 67.9462 1171.75 72.0181C1171.89 76.444 1169.92 80.2436 1165.83 83.4168C1161.74 86.5876 1156.7 88.2258 1150.71 88.3313L1093.24 89.3442Z" fill="#5EB2E5" fill-opacity="0.6"/>
<path d="M28.1624 145.788C20.898 145.917 14.6325 144.167 9.36583 140.541C4.09596 136.914 1.3748 132.415 1.20235 127.045C1.05455 122.442 2.7988 118.308 6.43512 114.642C10.0714 110.975 14.9069 108.587 20.9417 107.477C22.763 102.012 26.6132 97.545 32.4923 94.0754C38.3714 90.6058 45.1027 88.804 52.6864 88.6698C62.0263 88.5047 70.0256 90.7688 76.6844 95.4621C83.3464 100.158 86.7883 105.958 87.01 112.862C92.5333 113.237 97.1606 114.911 100.892 117.885C104.62 120.861 106.55 124.385 106.68 128.457C106.822 132.883 104.849 136.683 100.759 139.856C96.6656 143.027 91.6255 144.666 85.6384 144.772L28.1624 145.788Z" fill="#5EB2E5" fill-opacity="0.6"/>
<path d="M191.919 224.805C184.654 224.933 178.389 223.184 173.122 219.557C167.851 215.929 165.13 211.431 164.957 206.061C164.808 201.458 166.552 197.323 170.188 193.657C173.824 189.992 178.659 187.604 184.694 186.493C186.514 181.029 190.364 176.562 196.243 173.093C202.122 169.624 208.853 167.822 216.436 167.689C225.776 167.524 233.776 169.789 240.435 174.482C247.098 179.178 250.54 184.979 250.763 191.883C256.286 192.258 260.914 193.933 264.645 196.907C268.374 199.883 270.304 203.407 270.435 207.479C270.578 211.905 268.604 215.705 264.515 218.878C260.422 222.049 255.382 223.687 249.395 223.792L191.919 224.805Z" fill="#5EB2E5" fill-opacity="0.6"/>
<path d="M324.91 503.761C319.852 503.85 315.489 502.632 311.821 500.106C308.152 497.581 306.257 494.448 306.136 490.709C306.033 487.504 307.247 484.625 309.779 482.073C312.31 479.52 315.677 477.857 319.879 477.084C321.147 473.279 323.828 470.169 327.921 467.753C332.015 465.338 336.702 464.083 341.982 463.99C348.486 463.876 354.056 465.452 358.693 468.721C363.332 471.991 365.729 476.029 365.884 480.837C369.73 481.098 372.952 482.264 375.551 484.335C378.147 486.408 379.491 488.861 379.582 491.697C379.681 494.779 378.307 497.424 375.46 499.634C372.61 501.842 369.101 502.982 364.932 503.056L324.91 503.761Z" fill="#5EB2E5" fill-opacity="0.6"/>
<path d="M698.262 571.597C691.96 571.708 686.524 570.19 681.954 567.044C677.382 563.897 675.021 559.994 674.871 555.335C674.742 551.342 676.255 547.755 679.409 544.575C682.564 541.395 686.758 539.323 691.994 538.36C693.573 533.619 696.913 529.744 702.013 526.735C707.113 523.725 712.953 522.162 719.532 522.046C727.635 521.903 734.575 523.868 740.352 527.94C746.132 532.014 749.118 537.046 749.311 543.036C754.103 543.361 758.118 544.814 761.355 547.394C764.59 549.976 766.264 553.033 766.378 556.566C766.502 560.405 764.789 563.702 761.242 566.455C757.691 569.205 753.319 570.627 748.125 570.718L698.262 571.597Z" fill="#5EB2E5" fill-opacity="0.6"/>
<path d="M1106.19 484.773C1101.13 484.862 1096.77 483.644 1093.1 481.118C1089.43 478.593 1087.54 475.46 1087.42 471.721C1087.31 468.516 1088.53 465.637 1091.06 463.084C1093.59 460.532 1096.96 458.869 1101.16 458.096C1102.43 454.291 1105.11 451.181 1109.2 448.765C1113.29 446.349 1117.98 445.095 1123.26 445.002C1129.77 444.887 1135.34 446.464 1139.97 449.732C1144.61 453.002 1147.01 457.041 1147.16 461.849C1151.01 462.11 1154.23 463.276 1156.83 465.347C1159.43 467.419 1160.77 469.873 1160.86 472.708C1160.96 475.79 1159.59 478.436 1156.74 480.646C1153.89 482.853 1150.38 483.994 1146.21 484.068L1106.19 484.773Z" fill="#5EB2E5" fill-opacity="0.6"/>
<path d="M986.381 377.715C979.116 377.843 972.851 376.094 967.583 372.467C962.313 368.84 959.592 364.341 959.418 358.971C959.27 354.368 961.014 350.233 964.65 346.568C968.286 342.902 973.121 340.514 979.156 339.404C980.976 333.939 984.826 329.472 990.705 326.003C996.584 322.534 1003.31 320.733 1010.9 320.599C1020.24 320.434 1028.24 322.699 1034.9 327.393C1041.56 332.089 1045 337.889 1045.22 344.793C1050.75 345.168 1055.38 346.843 1059.11 349.817C1062.84 352.793 1064.77 356.317 1064.9 360.389C1065.04 364.815 1063.07 368.615 1058.98 371.788C1054.88 374.959 1049.84 376.597 1043.86 376.702L986.381 377.715Z" fill="#5EB2E5" fill-opacity="0.6"/>
<path d="M309.018 99.4123C305.374 99.4765 302.231 98.5989 299.589 96.7794C296.945 94.96 295.58 92.7034 295.493 90.0095C295.419 87.7005 296.293 85.6265 298.117 83.7876C299.941 81.9486 302.367 80.7507 305.394 80.1939C306.307 77.4528 308.238 75.2121 311.187 73.4718C314.136 71.7315 317.513 70.8279 321.317 70.7608C326.002 70.6782 330.015 71.8142 333.356 74.1688C336.698 76.5245 338.425 79.4341 338.536 82.8976C341.307 83.0857 343.628 83.9257 345.5 85.4175C347.371 86.9106 348.339 88.6784 348.404 90.721C348.476 92.9412 347.486 94.8471 345.435 96.4389C343.382 98.0295 340.853 98.8513 337.85 98.9042L309.018 99.4123Z" fill="#5EB2E5" fill-opacity="0.6"/>
<path d="M1185.36 251.295C1181.71 251.359 1178.57 250.482 1175.93 248.662C1173.28 246.843 1171.92 244.586 1171.83 241.892C1171.76 239.583 1172.63 237.509 1174.46 235.67C1176.28 233.831 1178.7 232.634 1181.73 232.077C1182.65 229.336 1184.58 227.095 1187.53 225.355C1190.47 223.614 1193.85 222.711 1197.65 222.644C1202.34 222.561 1206.35 223.697 1209.69 226.052C1213.04 228.407 1214.76 231.317 1214.87 234.78C1217.64 234.969 1219.97 235.809 1221.84 237.3C1223.71 238.793 1224.68 240.561 1224.74 242.604C1224.81 244.824 1223.82 246.73 1221.77 248.322C1219.72 249.912 1217.19 250.734 1214.19 250.787L1185.36 251.295Z" fill="#5EB2E5" fill-opacity="0.6"/>
<path d="M808.365 87.7548C797.136 87.7718 787.535 84.913 779.563 79.1782C771.586 73.4434 767.586 66.4256 767.563 58.1247C767.543 51.0096 770.425 44.6654 776.209 39.0923C781.993 33.5191 789.572 29.9501 798.946 28.3852C802.008 19.9883 808.159 13.1832 817.399 7.96966C826.639 2.75616 837.12 0.14053 848.843 0.12278C863.28 0.10092 875.536 3.79865 885.611 11.216C895.69 18.6369 900.745 27.6837 900.774 38.3564C909.291 39.0732 916.364 41.7754 921.994 46.4628C927.619 51.154 930.44 56.6466 930.457 62.9407C930.476 69.7821 927.254 75.6032 920.792 80.4038C914.325 85.2008 906.464 87.6063 897.209 87.6203L808.365 87.7548Z" fill="#5EB2E5" fill-opacity="0.6"/>
</svg>
