<svg width="302" height="177" viewBox="0 0 302 177" fill="none" xmlns="http://www.w3.org/2000/svg">
<rect width="302" height="146" rx="18" fill="white"/>
<path d="M40.7958 31.32V48H38.0598V40.704H30.2118V48H27.4758V31.32H30.2118V38.472H38.0598V31.32H40.7958ZM45.7897 33.024C45.2937 33.024 44.8777 32.856 44.5417 32.52C44.2057 32.184 44.0377 31.768 44.0377 31.272C44.0377 30.776 44.2057 30.36 44.5417 30.024C44.8777 29.688 45.2937 29.52 45.7897 29.52C46.2697 29.52 46.6777 29.688 47.0137 30.024C47.3497 30.36 47.5177 30.776 47.5177 31.272C47.5177 31.768 47.3497 32.184 47.0137 32.52C46.6777 32.856 46.2697 33.024 45.7897 33.024ZM47.1337 34.776V48H44.3977V34.776H47.1337ZM59.6962 31.32V48H56.9602V31.32H59.6962ZM64.7763 28.872L64.4883 33.792H62.6163L62.3043 28.872H64.7763ZM83.4213 34.56C84.4613 34.56 85.3893 34.776 86.2053 35.208C87.0373 35.64 87.6853 36.28 88.1493 37.128C88.6293 37.976 88.8693 39 88.8693 40.2V48H86.1573V40.608C86.1573 39.424 85.8613 38.52 85.2693 37.896C84.6773 37.256 83.8693 36.936 82.8453 36.936C81.8213 36.936 81.0053 37.256 80.3973 37.896C79.8053 38.52 79.5093 39.424 79.5093 40.608V48H76.7973V40.608C76.7973 39.424 76.5013 38.52 75.9093 37.896C75.3173 37.256 74.5093 36.936 73.4853 36.936C72.4613 36.936 71.6453 37.256 71.0373 37.896C70.4453 38.52 70.1493 39.424 70.1493 40.608V48H67.4133V34.776H70.1493V36.288C70.5973 35.744 71.1653 35.32 71.8533 35.016C72.5413 34.712 73.2773 34.56 74.0613 34.56C75.1173 34.56 76.0613 34.784 76.8933 35.232C77.7253 35.68 78.3653 36.328 78.8133 37.176C79.2133 36.376 79.8373 35.744 80.6853 35.28C81.5333 34.8 82.4453 34.56 83.4213 34.56ZM116.153 31.32V48H113.417V36.576L108.329 48H106.433L101.321 36.576V48H98.5852V31.32H101.537L107.393 44.4L113.225 31.32H116.153ZM122.485 36.696C122.885 36.024 123.413 35.504 124.069 35.136C124.741 34.752 125.533 34.56 126.445 34.56V37.392H125.749C124.677 37.392 123.861 37.664 123.301 38.208C122.757 38.752 122.485 39.696 122.485 41.04V48H119.749V34.776H122.485V36.696ZM130.064 48.168C129.568 48.168 129.152 48 128.816 47.664C128.48 47.328 128.312 46.912 128.312 46.416C128.312 45.92 128.48 45.504 128.816 45.168C129.152 44.832 129.568 44.664 130.064 44.664C130.544 44.664 130.952 44.832 131.288 45.168C131.624 45.504 131.792 45.92 131.792 46.416C131.792 46.912 131.624 47.328 131.288 47.664C130.952 48 130.544 48.168 130.064 48.168ZM146.821 36.12C146.389 35.288 145.789 34.664 145.021 34.248C144.253 33.816 143.365 33.6 142.357 33.6C141.253 33.6 140.269 33.848 139.405 34.344C138.541 34.84 137.861 35.544 137.365 36.456C136.885 37.368 136.645 38.424 136.645 39.624C136.645 40.824 136.885 41.888 137.365 42.816C137.861 43.728 138.541 44.432 139.405 44.928C140.269 45.424 141.253 45.672 142.357 45.672C143.845 45.672 145.053 45.256 145.981 44.424C146.909 43.592 147.477 42.464 147.685 41.04H141.421V38.856H150.613V40.992C150.437 42.288 149.973 43.48 149.221 44.568C148.485 45.656 147.517 46.528 146.317 47.184C145.133 47.824 143.813 48.144 142.357 48.144C140.789 48.144 139.357 47.784 138.061 47.064C136.765 46.328 135.733 45.312 134.965 44.016C134.213 42.72 133.837 41.256 133.837 39.624C133.837 37.992 134.213 36.528 134.965 35.232C135.733 33.936 136.765 32.928 138.061 32.208C139.373 31.472 140.805 31.104 142.357 31.104C144.133 31.104 145.709 31.544 147.085 32.424C148.477 33.288 149.485 34.52 150.109 36.12H146.821ZM156.048 36.696C156.448 36.024 156.976 35.504 157.632 35.136C158.304 34.752 159.096 34.56 160.008 34.56V37.392H159.312C158.24 37.392 157.424 37.664 156.864 38.208C156.32 38.752 156.048 39.696 156.048 41.04V48H153.312V34.776H156.048V36.696ZM174.643 41.064C174.643 41.56 174.611 42.008 174.547 42.408H164.443C164.523 43.464 164.915 44.312 165.619 44.952C166.323 45.592 167.187 45.912 168.211 45.912C169.683 45.912 170.723 45.296 171.331 44.064H174.283C173.883 45.28 173.155 46.28 172.099 47.064C171.059 47.832 169.763 48.216 168.211 48.216C166.947 48.216 165.811 47.936 164.803 47.376C163.811 46.8 163.027 46 162.451 44.976C161.891 43.936 161.611 42.736 161.611 41.376C161.611 40.016 161.883 38.824 162.427 37.8C162.987 36.76 163.763 35.96 164.755 35.4C165.763 34.84 166.915 34.56 168.211 34.56C169.459 34.56 170.571 34.832 171.547 35.376C172.523 35.92 173.283 36.688 173.827 37.68C174.371 38.656 174.643 39.784 174.643 41.064ZM171.787 40.2C171.771 39.192 171.411 38.384 170.707 37.776C170.003 37.168 169.131 36.864 168.091 36.864C167.147 36.864 166.339 37.168 165.667 37.776C164.995 38.368 164.595 39.176 164.467 40.2H171.787ZM189.455 41.064C189.455 41.56 189.423 42.008 189.359 42.408H179.255C179.335 43.464 179.727 44.312 180.431 44.952C181.135 45.592 181.999 45.912 183.023 45.912C184.495 45.912 185.535 45.296 186.143 44.064H189.095C188.695 45.28 187.967 46.28 186.911 47.064C185.871 47.832 184.575 48.216 183.023 48.216C181.759 48.216 180.623 47.936 179.615 47.376C178.623 46.8 177.839 46 177.263 44.976C176.703 43.936 176.423 42.736 176.423 41.376C176.423 40.016 176.695 38.824 177.239 37.8C177.799 36.76 178.575 35.96 179.567 35.4C180.575 34.84 181.727 34.56 183.023 34.56C184.271 34.56 185.383 34.832 186.359 35.376C187.335 35.92 188.095 36.688 188.639 37.68C189.183 38.656 189.455 39.784 189.455 41.064ZM186.599 40.2C186.583 39.192 186.223 38.384 185.519 37.776C184.815 37.168 183.943 36.864 182.903 36.864C181.959 36.864 181.151 37.168 180.479 37.776C179.807 38.368 179.407 39.176 179.279 40.2H186.599ZM198.82 34.56C199.86 34.56 200.788 34.776 201.604 35.208C202.436 35.64 203.084 36.28 203.548 37.128C204.012 37.976 204.244 39 204.244 40.2V48H201.532V40.608C201.532 39.424 201.236 38.52 200.644 37.896C200.052 37.256 199.244 36.936 198.22 36.936C197.196 36.936 196.38 37.256 195.772 37.896C195.18 38.52 194.884 39.424 194.884 40.608V48H192.148V34.776H194.884V36.288C195.332 35.744 195.9 35.32 196.588 35.016C197.292 34.712 198.036 34.56 198.82 34.56ZM210.734 44.712L207.83 51.336H206.054L207.758 44.712H210.734ZM222.095 31.32V48H219.359V31.32H222.095ZM231.009 41.328C231.009 40 231.281 38.824 231.825 37.8C232.385 36.776 233.137 35.984 234.081 35.424C235.041 34.848 236.097 34.56 237.249 34.56C238.289 34.56 239.193 34.768 239.961 35.184C240.745 35.584 241.369 36.088 241.833 36.696V34.776H244.593V48H241.833V46.032C241.369 46.656 240.737 47.176 239.937 47.592C239.137 48.008 238.225 48.216 237.201 48.216C236.065 48.216 235.025 47.928 234.081 47.352C233.137 46.76 232.385 45.944 231.825 44.904C231.281 43.848 231.009 42.656 231.009 41.328ZM241.833 41.376C241.833 40.464 241.641 39.672 241.257 39C240.889 38.328 240.401 37.816 239.793 37.464C239.185 37.112 238.529 36.936 237.825 36.936C237.121 36.936 236.465 37.112 235.857 37.464C235.249 37.8 234.753 38.304 234.369 38.976C234.001 39.632 233.817 40.416 233.817 41.328C233.817 42.24 234.001 43.04 234.369 43.728C234.753 44.416 235.249 44.944 235.857 45.312C236.481 45.664 237.137 45.84 237.825 45.84C238.529 45.84 239.185 45.664 239.793 45.312C240.401 44.96 240.889 44.448 241.257 43.776C241.641 43.088 241.833 42.288 241.833 41.376ZM264.195 34.56C265.235 34.56 266.163 34.776 266.979 35.208C267.811 35.64 268.459 36.28 268.923 37.128C269.403 37.976 269.643 39 269.643 40.2V48H266.931V40.608C266.931 39.424 266.635 38.52 266.043 37.896C265.451 37.256 264.643 36.936 263.619 36.936C262.595 36.936 261.779 37.256 261.171 37.896C260.579 38.52 260.283 39.424 260.283 40.608V48H257.571V40.608C257.571 39.424 257.275 38.52 256.683 37.896C256.091 37.256 255.283 36.936 254.259 36.936C253.235 36.936 252.419 37.256 251.811 37.896C251.219 38.52 250.923 39.424 250.923 40.608V48H248.187V34.776H250.923V36.288C251.371 35.744 251.939 35.32 252.627 35.016C253.315 34.712 254.051 34.56 254.835 34.56C255.891 34.56 256.835 34.784 257.667 35.232C258.499 35.68 259.139 36.328 259.587 37.176C259.987 36.376 260.611 35.744 261.459 35.28C262.307 34.8 263.219 34.56 264.195 34.56ZM43.6053 73.008V80.328C43.6053 80.824 43.7173 81.184 43.9413 81.408C44.1813 81.616 44.5813 81.72 45.1413 81.72H46.8213V84H44.6613C43.4293 84 42.4853 83.712 41.8293 83.136C41.1733 82.56 40.8453 81.624 40.8453 80.328V73.008H39.2853V70.776H40.8453V67.488H43.6053V70.776H46.8213V73.008H43.6053ZM56.183 70.56C57.191 70.56 58.087 70.776 58.871 71.208C59.671 71.64 60.295 72.28 60.743 73.128C61.207 73.976 61.439 75 61.439 76.2V84H58.727V76.608C58.727 75.424 58.431 74.52 57.839 73.896C57.247 73.256 56.439 72.936 55.415 72.936C54.391 72.936 53.575 73.256 52.967 73.896C52.375 74.52 52.079 75.424 52.079 76.608V84H49.343V66.24H52.079V72.312C52.543 71.752 53.127 71.32 53.831 71.016C54.551 70.712 55.335 70.56 56.183 70.56ZM77.0489 77.064C77.0489 77.56 77.0169 78.008 76.9529 78.408H66.8489C66.9289 79.464 67.3209 80.312 68.0249 80.952C68.7289 81.592 69.5929 81.912 70.6169 81.912C72.0889 81.912 73.1289 81.296 73.7369 80.064H76.6889C76.2889 81.28 75.5609 82.28 74.5049 83.064C73.4649 83.832 72.1689 84.216 70.6169 84.216C69.3529 84.216 68.2169 83.936 67.2089 83.376C66.2169 82.8 65.4329 82 64.8569 80.976C64.2969 79.936 64.0169 78.736 64.0169 77.376C64.0169 76.016 64.2889 74.824 64.8329 73.8C65.3929 72.76 66.1689 71.96 67.1609 71.4C68.1689 70.84 69.3209 70.56 70.6169 70.56C71.8649 70.56 72.9769 70.832 73.9529 71.376C74.9289 71.92 75.6889 72.688 76.2329 73.68C76.7769 74.656 77.0489 75.784 77.0489 77.064ZM74.1929 76.2C74.1769 75.192 73.8169 74.384 73.1129 73.776C72.4089 73.168 71.5369 72.864 70.4969 72.864C69.5529 72.864 68.7449 73.168 68.0729 73.776C67.4009 74.368 67.0009 75.176 66.8729 76.2H74.1929ZM85.0638 77.376C85.0638 76.016 85.3358 74.824 85.8798 73.8C86.4398 72.76 87.2078 71.96 88.1838 71.4C89.1598 70.84 90.2798 70.56 91.5438 70.56C93.1438 70.56 94.4638 70.944 95.5038 71.712C96.5598 72.464 97.2718 73.544 97.6398 74.952H94.6878C94.4478 74.296 94.0638 73.784 93.5358 73.416C93.0078 73.048 92.3438 72.864 91.5438 72.864C90.4238 72.864 89.5278 73.264 88.8558 74.064C88.1998 74.848 87.8718 75.952 87.8718 77.376C87.8718 78.8 88.1998 79.912 88.8558 80.712C89.5278 81.512 90.4238 81.912 91.5438 81.912C93.1278 81.912 94.1758 81.216 94.6878 79.824H97.6398C97.2558 81.168 96.5358 82.24 95.4798 83.04C94.4238 83.824 93.1118 84.216 91.5438 84.216C90.2798 84.216 89.1598 83.936 88.1838 83.376C87.2078 82.8 86.4398 82 85.8798 80.976C85.3358 79.936 85.0638 78.736 85.0638 77.376ZM103.102 66.24V84H100.366V66.24H103.102ZM108.087 69.024C107.591 69.024 107.175 68.856 106.839 68.52C106.503 68.184 106.335 67.768 106.335 67.272C106.335 66.776 106.503 66.36 106.839 66.024C107.175 65.688 107.591 65.52 108.087 65.52C108.567 65.52 108.975 65.688 109.311 66.024C109.647 66.36 109.815 66.776 109.815 67.272C109.815 67.768 109.647 68.184 109.311 68.52C108.975 68.856 108.567 69.024 108.087 69.024ZM109.431 70.776V84H106.695V70.776H109.431ZM129.031 70.56C130.071 70.56 130.999 70.776 131.815 71.208C132.647 71.64 133.295 72.28 133.759 73.128C134.239 73.976 134.479 75 134.479 76.2V84H131.767V76.608C131.767 75.424 131.471 74.52 130.879 73.896C130.287 73.256 129.479 72.936 128.455 72.936C127.431 72.936 126.615 73.256 126.007 73.896C125.415 74.52 125.119 75.424 125.119 76.608V84H122.407V76.608C122.407 75.424 122.111 74.52 121.519 73.896C120.927 73.256 120.119 72.936 119.095 72.936C118.071 72.936 117.255 73.256 116.647 73.896C116.055 74.52 115.759 75.424 115.759 76.608V84H113.023V70.776H115.759V72.288C116.207 71.744 116.775 71.32 117.463 71.016C118.151 70.712 118.887 70.56 119.671 70.56C120.727 70.56 121.671 70.784 122.503 71.232C123.335 71.68 123.975 72.328 124.423 73.176C124.823 72.376 125.447 71.744 126.295 71.28C127.143 70.8 128.055 70.56 129.031 70.56ZM137.048 77.328C137.048 76 137.32 74.824 137.864 73.8C138.424 72.776 139.176 71.984 140.12 71.424C141.08 70.848 142.136 70.56 143.288 70.56C144.328 70.56 145.232 70.768 146 71.184C146.784 71.584 147.408 72.088 147.872 72.696V70.776H150.632V84H147.872V82.032C147.408 82.656 146.776 83.176 145.976 83.592C145.176 84.008 144.264 84.216 143.24 84.216C142.104 84.216 141.064 83.928 140.12 83.352C139.176 82.76 138.424 81.944 137.864 80.904C137.32 79.848 137.048 78.656 137.048 77.328ZM147.872 77.376C147.872 76.464 147.68 75.672 147.296 75C146.928 74.328 146.44 73.816 145.832 73.464C145.224 73.112 144.568 72.936 143.864 72.936C143.16 72.936 142.504 73.112 141.896 73.464C141.288 73.8 140.792 74.304 140.408 74.976C140.04 75.632 139.856 76.416 139.856 77.328C139.856 78.24 140.04 79.04 140.408 79.728C140.792 80.416 141.288 80.944 141.896 81.312C142.52 81.664 143.176 81.84 143.864 81.84C144.568 81.84 145.224 81.664 145.832 81.312C146.44 80.96 146.928 80.448 147.296 79.776C147.68 79.088 147.872 78.288 147.872 77.376ZM157.418 73.008V80.328C157.418 80.824 157.53 81.184 157.754 81.408C157.994 81.616 158.394 81.72 158.954 81.72H160.634V84H158.474C157.242 84 156.298 83.712 155.642 83.136C154.986 82.56 154.658 81.624 154.658 80.328V73.008H153.098V70.776H154.658V67.488H157.418V70.776H160.634V73.008H157.418ZM175.275 77.064C175.275 77.56 175.243 78.008 175.179 78.408H165.075C165.155 79.464 165.547 80.312 166.251 80.952C166.955 81.592 167.819 81.912 168.843 81.912C170.315 81.912 171.355 81.296 171.963 80.064H174.915C174.515 81.28 173.787 82.28 172.731 83.064C171.691 83.832 170.395 84.216 168.843 84.216C167.579 84.216 166.443 83.936 165.435 83.376C164.443 82.8 163.659 82 163.083 80.976C162.523 79.936 162.243 78.736 162.243 77.376C162.243 76.016 162.515 74.824 163.059 73.8C163.619 72.76 164.395 71.96 165.387 71.4C166.395 70.84 167.547 70.56 168.843 70.56C170.091 70.56 171.203 70.832 172.179 71.376C173.155 71.92 173.915 72.688 174.459 73.68C175.003 74.656 175.275 75.784 175.275 77.064ZM172.419 76.2C172.403 75.192 172.043 74.384 171.339 73.776C170.635 73.168 169.763 72.864 168.723 72.864C167.779 72.864 166.971 73.168 166.299 73.776C165.627 74.368 165.227 75.176 165.099 76.2H172.419ZM189.938 84.216C188.69 84.216 187.562 83.936 186.554 83.376C185.546 82.8 184.754 82 184.178 80.976C183.602 79.936 183.314 78.736 183.314 77.376C183.314 76.032 183.61 74.84 184.202 73.8C184.794 72.76 185.602 71.96 186.626 71.4C187.65 70.84 188.794 70.56 190.058 70.56C191.322 70.56 192.466 70.84 193.49 71.4C194.514 71.96 195.322 72.76 195.914 73.8C196.506 74.84 196.802 76.032 196.802 77.376C196.802 78.72 196.498 79.912 195.89 80.952C195.282 81.992 194.45 82.8 193.394 83.376C192.354 83.936 191.202 84.216 189.938 84.216ZM189.938 81.84C190.642 81.84 191.298 81.672 191.906 81.336C192.53 81 193.034 80.496 193.418 79.824C193.802 79.152 193.994 78.336 193.994 77.376C193.994 76.416 193.81 75.608 193.442 74.952C193.074 74.28 192.586 73.776 191.978 73.44C191.37 73.104 190.714 72.936 190.01 72.936C189.306 72.936 188.65 73.104 188.042 73.44C187.45 73.776 186.978 74.28 186.626 74.952C186.274 75.608 186.098 76.416 186.098 77.376C186.098 78.8 186.458 79.904 187.178 80.688C187.914 81.456 188.834 81.84 189.938 81.84ZM205.051 73.008H202.603V84H199.843V73.008H198.283V70.776H199.843V69.84C199.843 68.32 200.243 67.216 201.043 66.528C201.859 65.824 203.131 65.472 204.859 65.472V67.752C204.027 67.752 203.443 67.912 203.107 68.232C202.771 68.536 202.603 69.072 202.603 69.84V70.776H205.051V73.008ZM213.02 73.008H210.572V84H207.812V73.008H206.252V70.776H207.812V69.84C207.812 68.32 208.212 67.216 209.012 66.528C209.828 65.824 211.1 65.472 212.828 65.472V67.752C211.996 67.752 211.412 67.912 211.076 68.232C210.74 68.536 210.572 69.072 210.572 69.84V70.776H213.02V73.008ZM216.837 69.024C216.341 69.024 215.925 68.856 215.589 68.52C215.253 68.184 215.085 67.768 215.085 67.272C215.085 66.776 215.253 66.36 215.589 66.024C215.925 65.688 216.341 65.52 216.837 65.52C217.317 65.52 217.725 65.688 218.061 66.024C218.397 66.36 218.565 66.776 218.565 67.272C218.565 67.768 218.397 68.184 218.061 68.52C217.725 68.856 217.317 69.024 216.837 69.024ZM218.181 70.776V84H215.445V70.776H218.181ZM220.861 77.376C220.861 76.016 221.133 74.824 221.677 73.8C222.237 72.76 223.005 71.96 223.981 71.4C224.957 70.84 226.077 70.56 227.341 70.56C228.941 70.56 230.261 70.944 231.301 71.712C232.357 72.464 233.069 73.544 233.437 74.952H230.485C230.245 74.296 229.861 73.784 229.333 73.416C228.805 73.048 228.141 72.864 227.341 72.864C226.221 72.864 225.325 73.264 224.653 74.064C223.997 74.848 223.669 75.952 223.669 77.376C223.669 78.8 223.997 79.912 224.653 80.712C225.325 81.512 226.221 81.912 227.341 81.912C228.925 81.912 229.973 81.216 230.485 79.824H233.437C233.053 81.168 232.333 82.24 231.277 83.04C230.221 83.824 228.909 84.216 227.341 84.216C226.077 84.216 224.957 83.936 223.981 83.376C223.005 82.8 222.237 82 221.677 80.976C221.133 79.936 220.861 78.736 220.861 77.376ZM248.283 77.064C248.283 77.56 248.251 78.008 248.187 78.408H238.083C238.163 79.464 238.555 80.312 239.259 80.952C239.963 81.592 240.827 81.912 241.851 81.912C243.323 81.912 244.363 81.296 244.971 80.064H247.923C247.523 81.28 246.795 82.28 245.739 83.064C244.699 83.832 243.403 84.216 241.851 84.216C240.587 84.216 239.451 83.936 238.443 83.376C237.451 82.8 236.667 82 236.091 80.976C235.531 79.936 235.251 78.736 235.251 77.376C235.251 76.016 235.523 74.824 236.067 73.8C236.627 72.76 237.403 71.96 238.395 71.4C239.403 70.84 240.555 70.56 241.851 70.56C243.099 70.56 244.211 70.832 245.187 71.376C246.163 71.92 246.923 72.688 247.467 73.68C248.011 74.656 248.283 75.784 248.283 77.064ZM245.427 76.2C245.411 75.192 245.051 74.384 244.347 73.776C243.643 73.168 242.771 72.864 241.731 72.864C240.787 72.864 239.979 73.168 239.307 73.776C238.635 74.368 238.235 75.176 238.107 76.2H245.427ZM253.712 72.696C254.112 72.024 254.64 71.504 255.296 71.136C255.968 70.752 256.76 70.56 257.672 70.56V73.392H256.976C255.904 73.392 255.088 73.664 254.528 74.208C253.984 74.752 253.712 75.696 253.712 77.04V84H250.976V70.776H253.712V72.696ZM80.7268 109.008H78.2788V120H75.5188V109.008H73.9588V106.776H75.5188V105.84C75.5188 104.32 75.9188 103.216 76.7188 102.528C77.5348 101.824 78.8068 101.472 80.5348 101.472V103.752C79.7028 103.752 79.1188 103.912 78.7828 104.232C78.4468 104.536 78.2788 105.072 78.2788 105.84V106.776H80.7268V109.008ZM85.8876 108.696C86.2876 108.024 86.8156 107.504 87.4716 107.136C88.1436 106.752 88.9356 106.56 89.8476 106.56V109.392H89.1516C88.0796 109.392 87.2636 109.664 86.7036 110.208C86.1596 110.752 85.8876 111.696 85.8876 113.04V120H83.1516V106.776H85.8876V108.696ZM98.0985 120.216C96.8505 120.216 95.7225 119.936 94.7145 119.376C93.7065 118.8 92.9145 118 92.3385 116.976C91.7625 115.936 91.4745 114.736 91.4745 113.376C91.4745 112.032 91.7705 110.84 92.3625 109.8C92.9545 108.76 93.7625 107.96 94.7865 107.4C95.8105 106.84 96.9545 106.56 98.2185 106.56C99.4825 106.56 100.627 106.84 101.651 107.4C102.675 107.96 103.483 108.76 104.075 109.8C104.667 110.84 104.963 112.032 104.963 113.376C104.963 114.72 104.659 115.912 104.051 116.952C103.443 117.992 102.611 118.8 101.555 119.376C100.515 119.936 99.3625 120.216 98.0985 120.216ZM98.0985 117.84C98.8025 117.84 99.4585 117.672 100.067 117.336C100.691 117 101.195 116.496 101.579 115.824C101.963 115.152 102.155 114.336 102.155 113.376C102.155 112.416 101.971 111.608 101.603 110.952C101.235 110.28 100.747 109.776 100.139 109.44C99.5305 109.104 98.8745 108.936 98.1705 108.936C97.4665 108.936 96.8105 109.104 96.2025 109.44C95.6105 109.776 95.1385 110.28 94.7865 110.952C94.4345 111.608 94.2585 112.416 94.2585 113.376C94.2585 114.8 94.6185 115.904 95.3385 116.688C96.0745 117.456 96.9945 117.84 98.0985 117.84ZM123.675 106.56C124.715 106.56 125.643 106.776 126.459 107.208C127.291 107.64 127.939 108.28 128.403 109.128C128.883 109.976 129.123 111 129.123 112.2V120H126.411V112.608C126.411 111.424 126.115 110.52 125.523 109.896C124.931 109.256 124.123 108.936 123.099 108.936C122.075 108.936 121.259 109.256 120.651 109.896C120.059 110.52 119.763 111.424 119.763 112.608V120H117.051V112.608C117.051 111.424 116.755 110.52 116.163 109.896C115.571 109.256 114.763 108.936 113.739 108.936C112.715 108.936 111.899 109.256 111.291 109.896C110.699 110.52 110.403 111.424 110.403 112.608V120H107.667V106.776H110.403V108.288C110.851 107.744 111.419 107.32 112.107 107.016C112.795 106.712 113.531 106.56 114.315 106.56C115.371 106.56 116.315 106.784 117.147 107.232C117.979 107.68 118.619 108.328 119.067 109.176C119.467 108.376 120.091 107.744 120.939 107.28C121.787 106.8 122.699 106.56 123.675 106.56ZM150.911 108.12C150.479 107.288 149.879 106.664 149.111 106.248C148.343 105.816 147.455 105.6 146.447 105.6C145.343 105.6 144.359 105.848 143.495 106.344C142.631 106.84 141.951 107.544 141.455 108.456C140.975 109.368 140.735 110.424 140.735 111.624C140.735 112.824 140.975 113.888 141.455 114.816C141.951 115.728 142.631 116.432 143.495 116.928C144.359 117.424 145.343 117.672 146.447 117.672C147.935 117.672 149.143 117.256 150.071 116.424C150.999 115.592 151.567 114.464 151.775 113.04H145.511V110.856H154.703V112.992C154.527 114.288 154.063 115.48 153.311 116.568C152.575 117.656 151.607 118.528 150.407 119.184C149.223 119.824 147.903 120.144 146.447 120.144C144.879 120.144 143.447 119.784 142.151 119.064C140.855 118.328 139.823 117.312 139.055 116.016C138.303 114.72 137.927 113.256 137.927 111.624C137.927 109.992 138.303 108.528 139.055 107.232C139.823 105.936 140.855 104.928 142.151 104.208C143.463 103.472 144.895 103.104 146.447 103.104C148.223 103.104 149.799 103.544 151.175 104.424C152.567 105.288 153.575 106.52 154.199 108.12H150.911ZM163.138 120.216C161.89 120.216 160.762 119.936 159.754 119.376C158.746 118.8 157.954 118 157.378 116.976C156.802 115.936 156.514 114.736 156.514 113.376C156.514 112.032 156.81 110.84 157.402 109.8C157.994 108.76 158.802 107.96 159.826 107.4C160.85 106.84 161.994 106.56 163.258 106.56C164.522 106.56 165.666 106.84 166.69 107.4C167.714 107.96 168.522 108.76 169.114 109.8C169.706 110.84 170.002 112.032 170.002 113.376C170.002 114.72 169.698 115.912 169.09 116.952C168.482 117.992 167.65 118.8 166.594 119.376C165.554 119.936 164.402 120.216 163.138 120.216ZM163.138 117.84C163.842 117.84 164.498 117.672 165.106 117.336C165.73 117 166.234 116.496 166.618 115.824C167.002 115.152 167.194 114.336 167.194 113.376C167.194 112.416 167.01 111.608 166.642 110.952C166.274 110.28 165.786 109.776 165.178 109.44C164.57 109.104 163.914 108.936 163.21 108.936C162.506 108.936 161.85 109.104 161.242 109.44C160.65 109.776 160.178 110.28 159.826 110.952C159.474 111.608 159.298 112.416 159.298 113.376C159.298 114.8 159.658 115.904 160.378 116.688C161.114 117.456 162.034 117.84 163.138 117.84ZM178.442 120.216C177.194 120.216 176.066 119.936 175.058 119.376C174.05 118.8 173.258 118 172.682 116.976C172.106 115.936 171.818 114.736 171.818 113.376C171.818 112.032 172.114 110.84 172.706 109.8C173.298 108.76 174.106 107.96 175.13 107.4C176.154 106.84 177.298 106.56 178.562 106.56C179.826 106.56 180.97 106.84 181.994 107.4C183.018 107.96 183.826 108.76 184.418 109.8C185.01 110.84 185.306 112.032 185.306 113.376C185.306 114.72 185.002 115.912 184.394 116.952C183.786 117.992 182.954 118.8 181.898 119.376C180.858 119.936 179.706 120.216 178.442 120.216ZM178.442 117.84C179.146 117.84 179.802 117.672 180.41 117.336C181.034 117 181.538 116.496 181.922 115.824C182.306 115.152 182.498 114.336 182.498 113.376C182.498 112.416 182.314 111.608 181.946 110.952C181.578 110.28 181.09 109.776 180.482 109.44C179.874 109.104 179.218 108.936 178.514 108.936C177.81 108.936 177.154 109.104 176.546 109.44C175.954 109.776 175.482 110.28 175.13 110.952C174.778 111.608 174.602 112.416 174.602 113.376C174.602 114.8 174.962 115.904 175.682 116.688C176.418 117.456 177.338 117.84 178.442 117.84ZM193.339 106.56C194.363 106.56 195.267 106.768 196.051 107.184C196.851 107.584 197.475 108.088 197.923 108.696V106.776H200.683V120.216C200.683 121.432 200.427 122.512 199.915 123.456C199.403 124.416 198.659 125.168 197.683 125.712C196.723 126.256 195.571 126.528 194.227 126.528C192.435 126.528 190.947 126.104 189.763 125.256C188.579 124.424 187.907 123.288 187.747 121.848H190.459C190.667 122.536 191.107 123.088 191.779 123.504C192.467 123.936 193.283 124.152 194.227 124.152C195.331 124.152 196.219 123.816 196.891 123.144C197.579 122.472 197.923 121.496 197.923 120.216V118.008C197.459 118.632 196.827 119.16 196.027 119.592C195.243 120.008 194.347 120.216 193.339 120.216C192.187 120.216 191.131 119.928 190.171 119.352C189.227 118.76 188.475 117.944 187.915 116.904C187.371 115.848 187.099 114.656 187.099 113.328C187.099 112 187.371 110.824 187.915 109.8C188.475 108.776 189.227 107.984 190.171 107.424C191.131 106.848 192.187 106.56 193.339 106.56ZM197.923 113.376C197.923 112.464 197.731 111.672 197.347 111C196.979 110.328 196.491 109.816 195.883 109.464C195.275 109.112 194.619 108.936 193.915 108.936C193.211 108.936 192.555 109.112 191.947 109.464C191.339 109.8 190.843 110.304 190.459 110.976C190.091 111.632 189.907 112.416 189.907 113.328C189.907 114.24 190.091 115.04 190.459 115.728C190.843 116.416 191.339 116.944 191.947 117.312C192.571 117.664 193.227 117.84 193.915 117.84C194.619 117.84 195.275 117.664 195.883 117.312C196.491 116.96 196.979 116.448 197.347 115.776C197.731 115.088 197.923 114.288 197.923 113.376ZM207.013 102.24V120H204.277V102.24H207.013ZM222.725 113.064C222.725 113.56 222.693 114.008 222.629 114.408H212.525C212.605 115.464 212.997 116.312 213.701 116.952C214.405 117.592 215.269 117.912 216.293 117.912C217.765 117.912 218.805 117.296 219.413 116.064H222.365C221.965 117.28 221.237 118.28 220.181 119.064C219.141 119.832 217.845 120.216 216.293 120.216C215.029 120.216 213.893 119.936 212.885 119.376C211.893 118.8 211.109 118 210.533 116.976C209.973 115.936 209.693 114.736 209.693 113.376C209.693 112.016 209.965 110.824 210.509 109.8C211.069 108.76 211.845 107.96 212.837 107.4C213.845 106.84 214.997 106.56 216.293 106.56C217.541 106.56 218.653 106.832 219.629 107.376C220.605 107.92 221.365 108.688 221.909 109.68C222.453 110.656 222.725 111.784 222.725 113.064ZM219.869 112.2C219.853 111.192 219.493 110.384 218.789 109.776C218.085 109.168 217.213 108.864 216.173 108.864C215.229 108.864 214.421 109.168 213.749 109.776C213.077 110.368 212.677 111.176 212.549 112.2H219.869Z" fill="black"/>
<path d="M19.3209 115.748L72.3285 146.054L18.079 176.795L19.3209 115.748Z" fill="white"/>
</svg>
