<svg width="1787" height="1117" viewBox="0 0 1787 1117" fill="none" xmlns="http://www.w3.org/2000/svg">
<g clip-path="url(#clip0_170_95)">
<path d="M1569.6 173.121C1559.13 173.37 1550.1 169.961 1542.51 162.892C1534.91 155.823 1530.99 147.056 1530.74 136.59C1530.53 127.62 1533.04 119.562 1538.28 112.418C1543.52 105.273 1550.49 100.619 1559.18 98.4558C1561.81 87.8064 1567.36 79.1012 1575.83 72.3401C1584.3 65.579 1594 62.0682 1604.93 61.8077C1618.39 61.487 1629.92 65.9003 1639.52 75.0479C1649.12 84.1999 1654.08 95.5039 1654.41 108.96C1662.37 109.691 1669.03 112.954 1674.41 118.75C1679.79 124.551 1682.57 131.419 1682.76 139.354C1682.96 147.98 1680.12 155.385 1674.22 161.569C1668.33 167.749 1661.06 170.941 1652.43 171.147L1569.6 173.121Z" fill="#5EB2E5" fill-opacity="0.25"/>
<path d="M34.5975 283.121C24.128 283.37 15.0977 279.961 7.50656 272.892C-0.0891273 265.823 -4.01167 257.056 -4.26107 246.59C-4.47484 237.62 -1.96164 229.562 3.27854 222.418C8.51872 215.273 15.4874 210.619 24.1846 208.456C26.8087 197.806 32.3571 189.101 40.8296 182.34C49.3022 175.579 59.0033 172.068 69.9331 171.808C83.3939 171.487 94.9231 175.9 104.521 185.048C114.123 194.2 119.085 205.504 119.405 218.96C127.366 219.691 134.035 222.954 139.413 228.75C144.787 234.551 147.568 241.419 147.757 249.354C147.963 257.98 145.119 265.385 139.225 271.569C133.326 277.749 126.062 280.941 117.434 281.147L34.5975 283.121Z" fill="#5EB2E5" fill-opacity="0.25"/>
<path d="M653.598 368.121C643.128 368.37 634.098 364.961 626.507 357.892C618.911 350.823 614.988 342.056 614.739 331.59C614.525 322.62 617.038 314.562 622.279 307.418C627.519 300.273 634.487 295.619 643.185 293.456C645.809 282.806 651.357 274.101 659.83 267.34C668.302 260.579 678.003 257.068 688.933 256.808C702.394 256.487 713.923 260.9 723.521 270.048C733.123 279.2 738.085 290.504 738.405 303.96C746.366 304.691 753.035 307.954 758.413 313.75C763.787 319.551 766.568 326.419 766.757 334.354C766.963 342.98 764.119 350.385 758.225 356.569C752.326 362.749 745.062 365.941 736.434 366.147L653.598 368.121Z" fill="#5EB2E5" fill-opacity="0.25"/>
<path d="M741.269 973.768C733.979 973.942 727.691 971.568 722.405 966.646C717.116 961.724 714.385 955.619 714.211 948.332C714.062 942.085 715.812 936.475 719.461 931.5C723.11 926.525 727.962 923.285 734.018 921.778C735.845 914.363 739.709 908.301 745.608 903.593C751.508 898.886 758.263 896.441 765.873 896.26C775.246 896.036 783.274 899.109 789.957 905.479C796.643 911.852 800.098 919.723 800.321 929.092C805.864 929.601 810.508 931.874 814.253 935.909C817.995 939.948 819.932 944.731 820.063 950.256C820.206 956.263 818.226 961.419 814.122 965.725C810.015 970.028 804.957 972.251 798.949 972.394L741.269 973.768Z" fill="#5EB2E5" fill-opacity="0.25"/>
<path d="M183.22 867.14C174.137 867.356 166.303 864.398 159.717 858.266C153.128 852.133 149.725 844.527 149.509 835.448C149.323 827.665 151.503 820.675 156.05 814.477C160.596 808.279 166.641 804.241 174.186 802.365C176.463 793.126 181.276 785.574 188.627 779.708C195.977 773.843 204.393 770.797 213.875 770.571C225.553 770.293 235.555 774.121 243.881 782.057C252.212 789.997 256.516 799.804 256.794 811.477C263.7 812.111 269.486 814.942 274.152 819.971C278.814 825.003 281.227 830.961 281.391 837.846C281.569 845.329 279.101 851.753 273.988 857.118C268.871 862.479 262.569 865.249 255.084 865.427L183.22 867.14Z" fill="#5EB2E5" fill-opacity="0.25"/>
<path d="M1334.27 906.768C1326.98 906.942 1320.69 904.568 1315.4 899.646C1310.12 894.724 1307.38 888.619 1307.21 881.332C1307.06 875.085 1308.81 869.475 1312.46 864.5C1316.11 859.525 1320.96 856.285 1327.02 854.778C1328.85 847.363 1332.71 841.301 1338.61 836.593C1344.51 831.886 1351.26 829.441 1358.87 829.26C1368.25 829.036 1376.27 832.109 1382.96 838.479C1389.64 844.852 1393.1 852.723 1393.32 862.092C1398.86 862.601 1403.51 864.874 1407.25 868.909C1410.99 872.948 1412.93 877.731 1413.06 883.256C1413.21 889.263 1411.23 894.419 1407.12 898.725C1403.01 903.028 1397.96 905.251 1391.95 905.394L1334.27 906.768Z" fill="#5EB2E5" fill-opacity="0.25"/>
<path d="M861.598 648.121C851.128 648.37 842.098 644.961 834.507 637.892C826.911 630.823 822.988 622.056 822.739 611.59C822.525 602.62 825.038 594.562 830.279 587.418C835.519 580.273 842.487 575.619 851.185 573.456C853.809 562.806 859.357 554.101 867.83 547.34C876.302 540.579 886.003 537.068 896.933 536.808C910.394 536.487 921.923 540.9 931.521 550.048C941.123 559.2 946.085 570.504 946.405 583.96C954.366 584.691 961.035 587.954 966.413 593.75C971.787 599.551 974.568 606.419 974.757 614.354C974.963 622.98 972.119 630.385 966.225 636.569C960.326 642.749 953.062 645.941 944.434 646.147L861.598 648.121Z" fill="#5EB2E5" fill-opacity="0.25"/>
<path d="M464.365 140.747C459.113 140.872 454.583 139.162 450.775 135.616C446.965 132.07 444.997 127.672 444.872 122.422C444.765 117.922 446.026 113.88 448.654 110.296C451.283 106.712 454.779 104.378 459.142 103.293C460.458 97.9505 463.241 93.5837 467.491 90.1921C471.741 86.8005 476.608 85.0394 482.091 84.9087C488.843 84.7478 494.626 86.9617 499.441 91.5504C504.258 96.1414 506.747 101.812 506.907 108.562C510.901 108.928 514.246 110.566 516.944 113.473C519.64 116.383 521.035 119.828 521.13 123.809C521.233 128.136 519.806 131.85 516.85 134.952C513.891 138.052 510.247 139.654 505.918 139.757L464.365 140.747Z" fill="#5EB2E5" fill-opacity="0.25"/>
<path d="M1702.37 488.743C1697.11 488.868 1692.58 487.158 1688.78 483.612C1684.97 480.066 1683 475.668 1682.87 470.418C1682.77 465.918 1684.03 461.876 1686.65 458.292C1689.28 454.709 1692.78 452.374 1697.14 451.289C1698.46 445.947 1701.24 441.58 1705.49 438.188C1709.74 434.797 1714.61 433.035 1720.09 432.905C1726.84 432.744 1732.63 434.958 1737.44 439.547C1742.26 444.137 1744.75 449.808 1744.91 456.558C1748.9 456.925 1752.25 458.562 1754.94 461.469C1757.64 464.379 1759.03 467.824 1759.13 471.805C1759.23 476.132 1757.81 479.846 1754.85 482.948C1751.89 486.048 1748.25 487.65 1743.92 487.753L1702.37 488.743Z" fill="#5EB2E5" fill-opacity="0.25"/>
<path d="M1184.04 312.025C1167.85 312.058 1154.02 306.486 1142.53 295.31C1131.03 284.133 1125.26 270.456 1125.23 254.279C1125.2 240.412 1129.36 228.049 1137.69 217.187C1146.03 206.326 1156.95 199.37 1170.46 196.32C1174.87 179.956 1183.74 166.693 1197.06 156.533C1210.37 146.372 1225.48 141.275 1242.37 141.24C1263.18 141.198 1280.84 148.404 1295.36 162.859C1309.89 177.322 1317.18 194.953 1317.22 215.753C1329.49 217.15 1339.69 222.416 1347.8 231.551C1355.91 240.694 1359.97 251.398 1360 263.665C1360.03 276.998 1355.38 288.342 1346.07 297.698C1336.75 307.047 1325.42 311.735 1312.08 311.762L1184.04 312.025Z" fill="#5EB2E5" fill-opacity="0.25"/>
</g>
<defs>
<clipPath id="clip0_170_95">
<rect width="1787" height="1117" fill="white"/>
</clipPath>
</defs>
</svg>
