<svg width="47" height="47" viewBox="0 0 47 47" fill="none" xmlns="http://www.w3.org/2000/svg">
<path d="M23.3294 2C11.5507 2 2 11.5507 2 23.3294C2 35.1081 11.5507 44.6588 23.3294 44.6588C35.1081 44.6588 44.6588 35.1081 44.6588 23.3294C44.6588 11.5507 35.1081 2 23.3294 2Z" stroke="#133F8D" stroke-width="3.70946" stroke-miterlimit="10"/>
<path d="M20.083 20.082H23.7925V33.5288" stroke="#133F8D" stroke-width="3.70946" stroke-linecap="round" stroke-linejoin="round"/>
<path d="M23.3294 9.65039C22.7333 9.65039 22.1506 9.82716 21.6549 10.1583C21.1593 10.4895 20.773 10.9602 20.5449 11.5109C20.3167 12.0617 20.257 12.6677 20.3733 13.2523C20.4896 13.837 20.7767 14.374 21.1982 14.7955C21.6197 15.217 22.1567 15.5041 22.7414 15.6204C23.326 15.7366 23.932 15.677 24.4828 15.4488C25.0335 15.2207 25.5042 14.8344 25.8354 14.3388C26.1665 13.8431 26.3433 13.2604 26.3433 12.6643C26.3433 11.865 26.0258 11.0984 25.4605 10.5332C24.8953 9.96793 24.1287 9.65039 23.3294 9.65039Z" fill="#133F8D"/>
</svg>
