<svg width="1115" height="1046" viewBox="0 0 1115 1046" fill="none" xmlns="http://www.w3.org/2000/svg">
<ellipse cx="557.5" cy="523" rx="557.5" ry="523" fill="white"/>
<g clip-path="url(#clip0_0_1)">
<path d="M463.875 579.576L500.317 492.986C502.193 488.532 506.545 485.639 511.377 485.639H675.364C680.303 485.639 684.734 488.661 686.538 493.258L720.418 579.69C720.962 581.087 721.248 582.576 721.248 584.073V698.499C721.248 705.073 715.965 710.423 709.394 710.501L690.697 710.723C683.789 710.802 678.242 705.051 678.571 698.148C678.9 691.301 677.963 685.572 677.963 685.572H505.951C505.951 685.572 505.951 690.943 505.951 697.575V698.871C505.951 705.503 500.582 710.874 493.954 710.874H474.949C468.32 710.874 462.952 705.503 462.952 698.871V584.23C462.937 582.633 463.259 581.051 463.875 579.576Z" fill="#FF0020"/>
<path d="M463.875 579.576L500.317 492.986C502.193 488.532 506.545 485.639 511.377 485.639H675.364C680.303 485.639 684.734 488.661 686.538 493.258L720.418 579.69C720.962 581.087 721.248 582.576 721.248 584.073V698.499C721.248 705.073 715.965 710.423 709.394 710.501L690.697 710.723C683.789 710.802 678.242 705.051 678.571 698.148C678.9 691.301 677.963 685.572 677.963 685.572H505.951C505.951 685.572 505.951 690.943 505.951 697.575V698.871C505.951 705.503 500.582 710.874 493.954 710.874H474.949C468.32 710.874 462.952 705.503 462.952 698.871V584.23C462.937 582.633 463.259 581.051 463.875 579.576Z" fill="#CA1818"/>
<path d="M490.695 572.95L516.057 505.883H674.776L695.814 572.95H490.695Z" fill="#5EB2E5"/>
<path d="M671.626 642.546C683.502 642.546 693.13 632.914 693.13 621.033C693.13 609.151 683.502 599.52 671.626 599.52C659.75 599.52 650.123 609.151 650.123 621.033C650.123 632.914 659.75 642.546 671.626 642.546Z" fill="#FFD45B"/>
<path d="M514.79 642.546C526.666 642.546 536.294 632.914 536.294 621.033C536.294 609.151 526.666 599.52 514.79 599.52C502.914 599.52 493.287 609.151 493.287 621.033C493.287 632.914 502.914 642.546 514.79 642.546Z" fill="#FFD45B"/>
<path d="M678.513 698.519C678.842 691.673 677.904 685.943 677.904 685.943Z" fill="#FF0020"/>
<path d="M677.926 685.98C677.926 685.98 721.534 684.483 721.534 685.98L721.19 698.87C721.19 705.445 715.907 710.794 709.336 710.873L690.639 711.095C683.731 711.174 678.183 705.423 678.513 698.519" fill="black"/>
<path d="M462.938 685.98C462.938 685.98 506.545 684.483 506.545 685.98L506.202 698.87C506.202 705.445 500.919 710.794 494.348 710.873L475.65 711.095C468.743 711.174 463.195 705.423 463.524 698.519" fill="black"/>
<path d="M927.432 579.806C963.017 579.806 991.864 552.987 991.864 519.903C991.864 486.82 963.017 460 927.432 460C891.847 460 863 486.82 863 519.903C863 552.987 891.847 579.806 927.432 579.806Z" fill="#FFF800"/>
<path d="M926.972 699.206C943.354 699.206 956.635 684.498 956.635 666.356C956.635 648.213 943.354 633.506 926.972 633.506C910.589 633.506 897.309 648.213 897.309 666.356C897.309 684.498 910.589 699.206 926.972 699.206Z" fill="#CDCDC9"/>
<path d="M891.742 621.179L864.785 533.938H991.863L963.127 621.179H891.742Z" fill="#FFF800"/>
<path d="M891.742 621.178H963.127L956.634 659.165H897.302L891.742 621.178Z" fill="#CDCDC9"/>
</g>
<path d="M367.933 319.217C377.753 310.727 385.476 303.772 391.102 298.35C396.83 292.826 401.586 287.098 405.371 281.165C409.156 275.232 411.048 269.3 411.048 263.367C411.048 257.229 409.565 252.422 406.599 248.944C403.734 245.466 399.182 243.727 392.943 243.727C386.908 243.727 382.202 245.67 378.827 249.558C375.553 253.342 373.814 258.457 373.61 264.901H356.732C357.039 253.24 360.517 244.341 367.166 238.203C373.917 231.964 382.458 228.844 392.789 228.844C403.939 228.844 412.634 231.912 418.873 238.05C425.215 244.187 428.386 252.371 428.386 262.6C428.386 269.965 426.494 277.074 422.709 283.927C419.027 290.678 414.577 296.765 409.36 302.186C404.246 307.505 397.699 313.694 389.721 320.752L382.816 326.889H431.455V341.466H356.885V328.73L367.933 319.217ZM456.488 319.217C466.308 310.727 474.031 303.772 479.657 298.35C485.385 292.826 490.142 287.098 493.926 281.165C497.711 275.232 499.603 269.3 499.603 263.367C499.603 257.229 498.12 252.422 495.154 248.944C492.29 245.466 487.738 243.727 481.498 243.727C475.463 243.727 470.758 245.67 467.382 249.558C464.109 253.342 462.37 258.457 462.165 264.901H445.287C445.594 253.24 449.072 244.341 455.721 238.203C462.472 231.964 471.013 228.844 481.345 228.844C492.494 228.844 501.189 231.912 507.429 238.05C513.771 244.187 516.942 252.371 516.942 262.6C516.942 269.965 515.049 277.074 511.265 283.927C507.582 290.678 503.133 296.765 497.916 302.186C492.801 307.505 486.255 313.694 478.276 320.752L471.371 326.889H520.01V341.466H445.441V328.73L456.488 319.217ZM596.444 343L555.17 295.281V343H537.678V236.362H555.17V285.001L596.598 236.362H618.539L572.201 289.758L619.306 343H596.444ZM711.953 267.049C709.191 261.73 705.355 257.741 700.445 255.081C695.535 252.319 689.858 250.938 683.414 250.938C676.356 250.938 670.065 252.524 664.541 255.695C659.017 258.866 654.67 263.367 651.499 269.197C648.43 275.028 646.896 281.779 646.896 289.451C646.896 297.123 648.43 303.925 651.499 309.858C654.67 315.688 659.017 320.189 664.541 323.36C670.065 326.531 676.356 328.117 683.414 328.117C692.927 328.117 700.65 325.457 706.583 320.138C712.515 314.819 716.147 307.607 717.476 298.504H677.43V284.541H736.196V298.197C735.07 306.482 732.104 314.103 727.296 321.059C722.591 328.014 716.402 333.589 708.731 337.783C701.161 341.875 692.722 343.921 683.414 343.921C673.389 343.921 664.234 341.619 655.949 337.016C647.663 332.311 641.065 325.815 636.155 317.53C631.348 309.244 628.944 299.885 628.944 289.451C628.944 279.017 631.348 269.658 636.155 261.372C641.065 253.087 647.663 246.642 655.949 242.039C664.336 237.334 673.492 234.981 683.414 234.981C694.768 234.981 704.844 237.794 713.641 243.42C722.54 248.944 728.984 256.82 732.973 267.049H711.953Z" fill="black"/>
<path d="M363.963 358.297V401H356.958V358.297H363.963ZM385.448 401.553C382.786 401.553 380.389 401.082 378.259 400.14C376.17 399.157 374.511 397.846 373.282 396.207C372.053 394.528 371.398 392.664 371.316 390.616H378.566C378.689 392.05 379.365 393.258 380.594 394.241C381.864 395.183 383.441 395.654 385.325 395.654C387.291 395.654 388.807 395.286 389.872 394.548C390.978 393.77 391.531 392.787 391.531 391.599C391.531 390.329 390.917 389.387 389.688 388.773C388.5 388.158 386.595 387.482 383.974 386.745C381.434 386.049 379.365 385.373 377.768 384.717C376.17 384.062 374.777 383.058 373.59 381.707C372.443 380.355 371.869 378.573 371.869 376.361C371.869 374.559 372.402 372.92 373.467 371.446C374.532 369.93 376.047 368.742 378.013 367.882C380.021 367.022 382.315 366.591 384.895 366.591C388.746 366.591 391.838 367.575 394.173 369.541C396.549 371.466 397.819 374.108 397.983 377.467H390.978C390.855 375.951 390.241 374.743 389.135 373.842C388.029 372.941 386.534 372.49 384.649 372.49C382.806 372.49 381.393 372.838 380.41 373.535C379.427 374.231 378.935 375.153 378.935 376.3C378.935 377.201 379.263 377.959 379.918 378.573C380.574 379.187 381.372 379.679 382.315 380.048C383.257 380.375 384.649 380.805 386.493 381.338C388.95 381.993 390.958 382.669 392.514 383.366C394.112 384.021 395.484 385.004 396.631 386.315C397.778 387.626 398.372 389.367 398.413 391.538C398.413 393.463 397.88 395.183 396.815 396.699C395.75 398.215 394.235 399.402 392.268 400.263C390.343 401.123 388.07 401.553 385.448 401.553ZM452.972 383.243C452.972 384.513 452.89 385.66 452.726 386.684H426.858C427.063 389.387 428.066 391.558 429.869 393.197C431.671 394.835 433.883 395.654 436.505 395.654C440.273 395.654 442.936 394.077 444.492 390.923H452.05C451.026 394.036 449.162 396.597 446.458 398.604C443.796 400.57 440.478 401.553 436.505 401.553C433.269 401.553 430.36 400.836 427.78 399.402C425.24 397.928 423.233 395.88 421.758 393.258C420.324 390.596 419.608 387.523 419.608 384.042C419.608 380.56 420.304 377.508 421.697 374.886C423.13 372.224 425.117 370.176 427.657 368.742C430.237 367.308 433.187 366.591 436.505 366.591C439.7 366.591 442.547 367.288 445.045 368.681C447.544 370.073 449.49 372.039 450.882 374.579C452.275 377.078 452.972 379.966 452.972 383.243ZM445.66 381.031C445.619 378.45 444.697 376.382 442.895 374.825C441.092 373.268 438.86 372.49 436.197 372.49C433.781 372.49 431.712 373.268 429.992 374.825C428.271 376.341 427.247 378.409 426.919 381.031H445.66ZM457.53 383.919C457.53 380.519 458.226 377.508 459.619 374.886C461.053 372.265 462.978 370.237 465.395 368.803C467.852 367.329 470.576 366.591 473.567 366.591C476.188 366.591 478.503 367.124 480.51 368.189C482.558 369.254 484.135 370.544 485.241 372.06V367.144H492.307V417.098H485.241V396.084C484.135 397.6 482.538 398.89 480.448 399.955C478.359 401.02 475.984 401.553 473.321 401.553C470.413 401.553 467.75 400.816 465.333 399.341C462.957 397.825 461.053 395.736 459.619 393.074C458.226 390.37 457.53 387.319 457.53 383.919ZM485.241 384.042C485.241 381.707 484.749 379.679 483.766 377.959C482.824 376.238 481.575 374.927 480.018 374.026C478.462 373.125 476.782 372.674 474.98 372.674C473.178 372.674 471.498 373.125 469.942 374.026C468.385 374.886 467.115 376.177 466.132 377.897C465.19 379.577 464.719 381.584 464.719 383.919C464.719 386.253 465.19 388.302 466.132 390.063C467.115 391.824 468.385 393.176 469.942 394.118C471.539 395.019 473.219 395.47 474.98 395.47C476.782 395.47 478.462 395.019 480.018 394.118C481.575 393.217 482.824 391.906 483.766 390.186C484.749 388.425 485.241 386.376 485.241 384.042ZM532.168 367.144V401H525.163V397.006C524.057 398.399 522.603 399.505 520.801 400.324C519.039 401.102 517.155 401.492 515.148 401.492C512.485 401.492 510.089 400.939 507.959 399.833C505.87 398.727 504.211 397.088 502.982 394.917C501.794 392.746 501.2 390.124 501.2 387.052V367.144H508.143V386.008C508.143 389.039 508.901 391.374 510.417 393.012C511.932 394.61 514.001 395.409 516.622 395.409C519.244 395.409 521.313 394.61 522.828 393.012C524.385 391.374 525.163 389.039 525.163 386.008V367.144H532.168ZM539.075 383.919C539.075 380.519 539.771 377.508 541.164 374.886C542.598 372.265 544.523 370.237 546.94 368.803C549.397 367.329 552.101 366.591 555.05 366.591C557.713 366.591 560.027 367.124 561.993 368.189C564.001 369.213 565.598 370.503 566.786 372.06V367.144H573.852V401H566.786V395.962C565.598 397.559 563.98 398.89 561.932 399.955C559.884 401.02 557.549 401.553 554.927 401.553C552.019 401.553 549.357 400.816 546.94 399.341C544.523 397.825 542.598 395.736 541.164 393.074C539.771 390.37 539.075 387.319 539.075 383.919ZM566.786 384.042C566.786 381.707 566.295 379.679 565.311 377.959C564.369 376.238 563.12 374.927 561.563 374.026C560.007 373.125 558.327 372.674 556.525 372.674C554.723 372.674 553.043 373.125 551.487 374.026C549.93 374.886 548.66 376.177 547.677 377.897C546.735 379.577 546.264 381.584 546.264 383.919C546.264 386.253 546.735 388.302 547.677 390.063C548.66 391.824 549.93 393.176 551.487 394.118C553.084 395.019 554.764 395.47 556.525 395.47C558.327 395.47 560.007 395.019 561.563 394.118C563.12 393.217 564.369 391.906 565.311 390.186C566.295 388.425 566.786 386.376 566.786 384.042ZM590.057 355.532V401H583.052V355.532H590.057ZM623.386 372.859V391.599C623.386 392.869 623.673 393.791 624.247 394.364C624.861 394.897 625.885 395.163 627.319 395.163H631.62V401H626.09C622.936 401 620.519 400.263 618.84 398.788C617.16 397.313 616.32 394.917 616.32 391.599V372.859H612.326V367.144H616.32V358.727H623.386V367.144H631.62V372.859H623.386ZM652.761 401.553C649.566 401.553 646.678 400.836 644.097 399.402C641.517 397.928 639.489 395.88 638.014 393.258C636.54 390.596 635.802 387.523 635.802 384.042C635.802 380.601 636.56 377.549 638.076 374.886C639.591 372.224 641.66 370.176 644.282 368.742C646.903 367.308 649.832 366.591 653.068 366.591C656.304 366.591 659.233 367.308 661.854 368.742C664.476 370.176 666.545 372.224 668.06 374.886C669.576 377.549 670.334 380.601 670.334 384.042C670.334 387.482 669.555 390.534 667.999 393.197C666.442 395.859 664.312 397.928 661.609 399.402C658.946 400.836 655.997 401.553 652.761 401.553ZM652.761 395.47C654.563 395.47 656.243 395.04 657.799 394.18C659.397 393.32 660.687 392.029 661.67 390.309C662.653 388.588 663.145 386.499 663.145 384.042C663.145 381.584 662.674 379.515 661.732 377.836C660.789 376.115 659.54 374.825 657.984 373.965C656.427 373.105 654.747 372.674 652.945 372.674C651.143 372.674 649.463 373.105 647.907 373.965C646.391 374.825 645.183 376.115 644.282 377.836C643.38 379.515 642.93 381.584 642.93 384.042C642.93 387.687 643.851 390.514 645.695 392.521C647.579 394.487 649.934 395.47 652.761 395.47Z" fill="#A6A6A6"/>
<path d="M813.858 372.794C798.179 368.355 786.172 358.554 777.836 343.392C769.494 328.227 767.327 311.967 771.334 294.61C774.769 279.732 781.878 267.622 792.663 258.28C803.447 248.938 815.761 244.499 829.604 244.964C837.963 228.636 849.858 216.865 865.291 209.652C880.723 202.439 896.623 201.15 912.991 205.784C933.15 211.492 948.455 224.104 958.906 243.621C969.361 263.147 972.013 284.068 966.861 306.384C978.397 311.276 986.953 319.742 992.529 331.782C998.096 343.828 999.361 356.431 996.322 369.592C993.019 383.897 985.691 394.779 974.336 402.236C962.976 409.684 950.834 411.578 937.912 407.919L813.858 372.794Z" fill="#5EB2E5"/>
<path d="M204.598 276.713C194.128 276.989 185.098 273.213 177.507 265.385C169.911 257.557 165.988 247.848 165.739 236.258C165.525 226.324 168.038 217.4 173.279 209.488C178.519 201.577 185.487 196.423 194.185 194.027C196.809 182.233 202.357 172.593 210.83 165.105C219.302 157.618 229.003 153.73 239.933 153.441C253.394 153.086 264.923 157.974 274.521 168.104C284.123 178.239 289.085 190.758 289.405 205.659C297.366 206.469 304.035 210.083 309.413 216.501C314.787 222.925 317.568 230.531 317.757 239.319C317.963 248.871 315.119 257.072 309.225 263.92C303.326 270.764 296.062 274.299 287.434 274.527L204.598 276.713Z" fill="#5EB2E5"/>
<path d="M532.365 166.658C527.113 166.797 522.583 164.903 518.775 160.976C514.965 157.049 512.997 152.178 512.872 146.364C512.765 141.381 514.026 136.905 516.654 132.936C519.283 128.967 522.779 126.382 527.142 125.18C528.458 119.264 531.241 114.428 535.491 110.672C539.741 106.916 544.608 104.966 550.091 104.821C556.843 104.643 562.626 107.095 567.441 112.176C572.258 117.26 574.747 123.54 574.907 131.015C578.901 131.421 582.246 133.234 584.944 136.454C587.64 139.676 589.035 143.492 589.13 147.9C589.233 152.692 587.806 156.805 584.85 160.241C581.891 163.674 578.247 165.447 573.918 165.562L532.365 166.658Z" fill="#5EB2E5"/>
<path d="M816.814 299.035C818.02 294.321 820.187 290.37 823.316 287.182C826.491 284.006 830.216 281.857 834.491 280.735C838.824 279.578 843.231 279.572 847.714 280.718C852.843 282.03 857.07 284.465 860.395 288.022C863.777 291.546 865.778 295.848 866.399 300.93L856.903 298.502C856.305 295.642 855.056 293.304 853.157 291.489C851.258 289.674 848.853 288.395 845.941 287.65C842.753 286.835 839.728 286.825 836.866 287.619C834.004 288.414 831.515 289.968 829.397 292.282C827.325 294.608 825.834 297.55 824.925 301.108C824.015 304.666 823.91 307.963 824.612 310.998C825.359 314.044 826.791 316.626 828.908 318.743C831.038 320.813 833.696 322.256 836.885 323.071C839.796 323.816 842.521 323.848 845.058 323.167C847.595 322.487 849.812 321.035 851.71 318.812L861.206 321.24C858.223 325.401 854.401 328.215 849.743 329.682C845.131 331.161 840.26 331.245 835.13 329.934C830.602 328.776 826.732 326.679 823.52 323.642C820.321 320.559 818.09 316.863 816.829 312.553C815.614 308.254 815.609 303.748 816.814 299.035ZM888.725 343.711C884.243 342.565 880.373 340.467 877.115 337.419C873.916 334.336 871.685 330.64 870.424 326.329C869.221 321.985 869.222 317.456 870.427 312.742C871.632 308.029 873.799 304.078 876.928 300.89C880.104 297.714 883.829 295.565 888.103 294.442C892.436 293.285 896.844 293.28 901.326 294.426C905.855 295.584 909.719 297.704 912.919 300.787C916.177 303.835 918.413 307.509 919.628 311.807C920.843 316.106 920.848 320.612 919.643 325.325C918.437 330.039 916.264 334.013 913.124 337.247C909.995 340.435 906.264 342.607 901.931 343.764C897.656 344.886 893.254 344.869 888.725 343.711ZM890.48 336.848C893.669 337.664 896.694 337.674 899.555 336.879C902.429 336.039 904.902 334.455 906.973 332.13C909.103 329.769 910.623 326.81 911.532 323.252C912.442 319.694 912.523 316.391 911.776 313.345C911.075 310.31 909.66 307.757 907.531 305.687C905.402 303.616 902.743 302.173 899.554 301.358C896.366 300.543 893.34 300.532 890.479 301.327C887.617 302.121 885.127 303.676 883.009 305.99C880.938 308.315 879.447 311.257 878.537 314.816C877.627 318.374 877.517 321.694 878.206 324.775C878.954 327.821 880.386 330.403 882.503 332.52C884.633 334.59 887.291 336.033 890.48 336.848ZM927.307 341.612C932.724 338.911 937.017 336.66 940.185 334.861C943.411 333.027 946.221 330.989 948.616 328.746C951.011 326.502 952.552 324.041 953.237 321.36C953.946 318.588 953.831 316.244 952.893 314.331C952 312.429 950.145 311.117 947.326 310.397C944.599 309.699 942.249 310.034 940.275 311.4C938.359 312.732 936.983 314.842 936.146 317.729L928.521 315.78C930.007 310.547 932.606 306.928 936.319 304.924C940.089 302.885 944.308 302.462 948.976 303.655C954.013 304.943 957.586 307.334 959.696 310.827C961.853 314.332 962.34 318.395 961.158 323.017C960.308 326.344 958.632 329.337 956.13 331.996C953.687 334.621 950.973 336.856 947.99 338.703C945.065 340.515 941.393 342.555 936.973 344.822L933.145 346.797L955.119 352.415L953.435 359L919.747 350.387L921.218 344.633L927.307 341.612Z" fill="white"/>
<path d="M201.448 763.319H192.061V768.895C192.453 768.372 193.032 767.933 193.798 767.578C194.583 767.223 195.414 767.046 196.292 767.046C197.861 767.046 199.132 767.382 200.103 768.054C201.093 768.727 201.794 769.577 202.205 770.604C202.634 771.632 202.849 772.715 202.849 773.855C202.849 775.237 202.578 776.47 202.036 777.553C201.513 778.618 200.719 779.459 199.655 780.075C198.609 780.692 197.32 781 195.788 781C193.752 781 192.117 780.496 190.884 779.487C189.651 778.478 188.913 777.142 188.67 775.48H191.781C191.986 776.358 192.444 777.058 193.154 777.581C193.864 778.086 194.751 778.338 195.816 778.338C197.142 778.338 198.132 777.936 198.786 777.133C199.458 776.33 199.795 775.265 199.795 773.939C199.795 772.594 199.458 771.566 198.786 770.856C198.113 770.128 197.123 769.764 195.816 769.764C194.9 769.764 194.125 769.997 193.49 770.464C192.874 770.912 192.425 771.529 192.145 772.313H189.119V760.517H201.448V763.319ZM219.982 773.294L227.1 781H222.784L217.068 774.359V781H213.874V760.264H217.068V772.313L222.672 765.56H227.1L219.982 773.294ZM248.079 765.308C249.293 765.308 250.377 765.56 251.33 766.065C252.301 766.569 253.058 767.316 253.599 768.306C254.16 769.297 254.44 770.492 254.44 771.893V781H251.274V772.37C251.274 770.987 250.928 769.932 250.237 769.203C249.546 768.456 248.602 768.082 247.407 768.082C246.211 768.082 245.258 768.456 244.549 769.203C243.857 769.932 243.512 770.987 243.512 772.37V781H240.345V772.37C240.345 770.987 240 769.932 239.309 769.203C238.617 768.456 237.674 768.082 236.478 768.082C235.283 768.082 234.33 768.456 233.62 769.203C232.929 769.932 232.584 770.987 232.584 772.37V781H229.389V765.56H232.584V767.326C233.107 766.691 233.77 766.196 234.573 765.841C235.376 765.486 236.236 765.308 237.151 765.308C238.384 765.308 239.486 765.57 240.457 766.093C241.429 766.616 242.176 767.372 242.699 768.362C243.166 767.428 243.895 766.691 244.885 766.149C245.875 765.588 246.94 765.308 248.079 765.308ZM191.286 810.166H188.427V823H185.205V810.166H183.384V807.56H185.205V806.468C185.205 804.693 185.672 803.404 186.606 802.601C187.559 801.779 189.044 801.368 191.061 801.368V804.03C190.09 804.03 189.408 804.217 189.016 804.59C188.624 804.945 188.427 805.571 188.427 806.468V807.56H191.286V810.166ZM197.311 802.264V823H194.117V802.264H197.311ZM215.403 807.56L205.932 830.257H202.626L205.764 822.748L199.684 807.56H203.242L207.585 819.329L212.097 807.56H215.403ZM219.439 805.515C218.86 805.515 218.374 805.319 217.982 804.926C217.59 804.534 217.394 804.048 217.394 803.469C217.394 802.89 217.59 802.405 217.982 802.012C218.374 801.62 218.86 801.424 219.439 801.424C220 801.424 220.476 801.62 220.868 802.012C221.261 802.405 221.457 802.89 221.457 803.469C221.457 804.048 221.261 804.534 220.868 804.926C220.476 805.319 220 805.515 219.439 805.515ZM221.008 807.56V823H217.814V807.56H221.008ZM232.992 807.308C234.206 807.308 235.29 807.56 236.243 808.065C237.214 808.569 237.971 809.316 238.512 810.306C239.054 811.297 239.325 812.492 239.325 813.893V823H236.159V814.37C236.159 812.987 235.813 811.932 235.122 811.203C234.431 810.456 233.487 810.082 232.292 810.082C231.096 810.082 230.143 810.456 229.434 811.203C228.742 811.932 228.397 812.987 228.397 814.37V823H225.202V807.56H228.397V809.326C228.92 808.691 229.583 808.196 230.386 807.841C231.208 807.486 232.077 807.308 232.992 807.308ZM249.62 807.308C250.816 807.308 251.871 807.551 252.787 808.037C253.721 808.504 254.449 809.092 254.972 809.802V807.56H258.195V823.252C258.195 824.672 257.896 825.933 257.298 827.035C256.7 828.156 255.832 829.034 254.692 829.669C253.571 830.304 252.226 830.622 250.657 830.622C248.565 830.622 246.828 830.127 245.445 829.137C244.063 828.165 243.278 826.839 243.091 825.158H246.258C246.501 825.961 247.014 826.605 247.799 827.091C248.602 827.595 249.555 827.848 250.657 827.848C251.946 827.848 252.983 827.455 253.767 826.671C254.571 825.886 254.972 824.747 254.972 823.252V820.674C254.431 821.403 253.693 822.019 252.759 822.524C251.843 823.009 250.797 823.252 249.62 823.252C248.275 823.252 247.042 822.916 245.922 822.243C244.819 821.552 243.941 820.6 243.288 819.385C242.652 818.152 242.335 816.761 242.335 815.21C242.335 813.66 242.652 812.287 243.288 811.091C243.941 809.895 244.819 808.971 245.922 808.317C247.042 807.644 248.275 807.308 249.62 807.308ZM254.972 815.266C254.972 814.201 254.748 813.277 254.3 812.492C253.87 811.708 253.3 811.11 252.591 810.699C251.881 810.288 251.115 810.082 250.293 810.082C249.471 810.082 248.705 810.288 247.995 810.699C247.285 811.091 246.706 811.679 246.258 812.464C245.828 813.23 245.613 814.145 245.613 815.21C245.613 816.275 245.828 817.209 246.258 818.012C246.706 818.816 247.285 819.432 247.995 819.862C248.724 820.273 249.49 820.478 250.293 820.478C251.115 820.478 251.881 820.273 252.591 819.862C253.3 819.451 253.87 818.853 254.3 818.068C254.748 817.265 254.972 816.331 254.972 815.266Z" fill="black"/>
<path d="M547.168 782.741V780.331L556.583 766.825H560.45V779.967H563.056V782.741H560.45V787H557.311V782.741H547.168ZM557.451 770.075L550.838 779.967H557.451V770.075ZM569.625 783.161L566.235 790.895H564.161L566.151 783.161H569.625ZM585.166 769.319H575.779V774.895C576.171 774.372 576.75 773.933 577.516 773.578C578.301 773.223 579.132 773.046 580.01 773.046C581.579 773.046 582.85 773.382 583.821 774.054C584.811 774.727 585.512 775.577 585.923 776.604C586.352 777.632 586.567 778.715 586.567 779.855C586.567 781.237 586.296 782.47 585.755 783.553C585.232 784.618 584.438 785.459 583.373 786.075C582.327 786.692 581.038 787 579.506 787C577.47 787 575.835 786.496 574.602 785.487C573.369 784.478 572.631 783.142 572.389 781.48H575.499C575.704 782.358 576.162 783.058 576.872 783.581C577.582 784.086 578.469 784.338 579.534 784.338C580.86 784.338 581.85 783.936 582.504 783.133C583.177 782.33 583.513 781.265 583.513 779.939C583.513 778.594 583.177 777.566 582.504 776.856C581.832 776.128 580.842 775.764 579.534 775.764C578.619 775.764 577.843 775.997 577.208 776.464C576.592 776.912 576.143 777.529 575.863 778.313H572.837V766.517H585.166V769.319ZM603.7 779.294L610.818 787H606.502L600.786 780.359V787H597.592V766.264H600.786V778.313L606.39 771.56H610.818L603.7 779.294ZM631.797 771.308C633.012 771.308 634.095 771.56 635.048 772.065C636.019 772.569 636.776 773.316 637.318 774.306C637.878 775.297 638.158 776.492 638.158 777.893V787H634.992V778.37C634.992 776.987 634.646 775.932 633.955 775.203C633.264 774.456 632.32 774.082 631.125 774.082C629.929 774.082 628.977 774.456 628.267 775.203C627.576 775.932 627.23 776.987 627.23 778.37V787H624.064V778.37C624.064 776.987 623.718 775.932 623.027 775.203C622.336 774.456 621.392 774.082 620.197 774.082C619.001 774.082 618.048 774.456 617.338 775.203C616.647 775.932 616.302 776.987 616.302 778.37V787H613.107V771.56H616.302V773.326C616.825 772.691 617.488 772.196 618.291 771.841C619.094 771.486 619.954 771.308 620.869 771.308C622.102 771.308 623.204 771.57 624.176 772.093C625.147 772.616 625.894 773.372 626.417 774.362C626.884 773.428 627.613 772.691 628.603 772.149C629.593 771.588 630.658 771.308 631.797 771.308ZM545.109 821.21C545.109 819.66 545.427 818.287 546.062 817.091C546.716 815.895 547.594 814.971 548.696 814.317C549.817 813.644 551.059 813.308 552.423 813.308C553.432 813.308 554.422 813.532 555.393 813.981C556.383 814.41 557.168 814.989 557.747 815.718V808.264H560.969V829H557.747V826.674C557.224 827.421 556.495 828.038 555.561 828.524C554.646 829.009 553.59 829.252 552.395 829.252C551.05 829.252 549.817 828.916 548.696 828.243C547.594 827.552 546.716 826.6 546.062 825.385C545.427 824.152 545.109 822.761 545.109 821.21ZM557.747 821.266C557.747 820.201 557.523 819.277 557.074 818.492C556.645 817.708 556.075 817.11 555.365 816.699C554.655 816.288 553.889 816.082 553.067 816.082C552.245 816.082 551.479 816.288 550.77 816.699C550.06 817.091 549.481 817.679 549.032 818.464C548.603 819.23 548.388 820.145 548.388 821.21C548.388 822.275 548.603 823.209 549.032 824.012C549.481 824.816 550.06 825.432 550.77 825.862C551.498 826.273 552.264 826.478 553.067 826.478C553.889 826.478 554.655 826.273 555.365 825.862C556.075 825.451 556.645 824.853 557.074 824.068C557.523 823.265 557.747 822.331 557.747 821.266ZM568.359 815.802C568.826 815.017 569.443 814.41 570.209 813.981C570.993 813.532 571.918 813.308 572.983 813.308V816.615H572.17C570.919 816.615 569.966 816.932 569.312 817.567C568.677 818.203 568.359 819.305 568.359 820.874V829H565.165V813.56H568.359V815.802ZM577.544 811.515C576.965 811.515 576.48 811.319 576.087 810.926C575.695 810.534 575.499 810.048 575.499 809.469C575.499 808.89 575.695 808.405 576.087 808.012C576.48 807.62 576.965 807.424 577.544 807.424C578.105 807.424 578.581 807.62 578.973 808.012C579.366 808.405 579.562 808.89 579.562 809.469C579.562 810.048 579.366 810.534 578.973 810.926C578.581 811.319 578.105 811.515 577.544 811.515ZM579.114 813.56V829H575.919V813.56H579.114ZM589.276 826.142L593.647 813.56H597.038L591.153 829H587.343L581.486 813.56H584.905L589.276 826.142ZM601.078 811.515C600.499 811.515 600.013 811.319 599.621 810.926C599.228 810.534 599.032 810.048 599.032 809.469C599.032 808.89 599.228 808.405 599.621 808.012C600.013 807.62 600.499 807.424 601.078 807.424C601.638 807.424 602.115 807.62 602.507 808.012C602.899 808.405 603.095 808.89 603.095 809.469C603.095 810.048 602.899 810.534 602.507 810.926C602.115 811.319 601.638 811.515 601.078 811.515ZM602.647 813.56V829H599.453V813.56H602.647ZM614.631 813.308C615.845 813.308 616.928 813.56 617.881 814.065C618.853 814.569 619.609 815.316 620.151 816.306C620.693 817.297 620.963 818.492 620.963 819.893V829H617.797V820.37C617.797 818.987 617.452 817.932 616.76 817.203C616.069 816.456 615.126 816.082 613.93 816.082C612.735 816.082 611.782 816.456 611.072 817.203C610.381 817.932 610.035 818.987 610.035 820.37V829H606.841V813.56H610.035V815.326C610.558 814.691 611.222 814.196 612.025 813.841C612.847 813.486 613.715 813.308 614.631 813.308ZM631.259 813.308C632.454 813.308 633.51 813.551 634.425 814.037C635.359 814.504 636.088 815.092 636.611 815.802V813.56H639.833V829.252C639.833 830.672 639.534 831.933 638.937 833.035C638.339 834.156 637.47 835.034 636.331 835.669C635.21 836.304 633.865 836.622 632.296 836.622C630.203 836.622 628.466 836.127 627.084 835.137C625.701 834.165 624.917 832.839 624.73 831.158H627.896C628.139 831.961 628.653 832.605 629.437 833.091C630.241 833.595 631.193 833.848 632.296 833.848C633.585 833.848 634.621 833.455 635.406 832.671C636.209 831.886 636.611 830.747 636.611 829.252V826.674C636.069 827.403 635.331 828.019 634.397 828.524C633.482 829.009 632.436 829.252 631.259 829.252C629.914 829.252 628.681 828.916 627.56 828.243C626.458 827.552 625.58 826.6 624.926 825.385C624.291 824.152 623.973 822.761 623.973 821.21C623.973 819.66 624.291 818.287 624.926 817.091C625.58 815.895 626.458 814.971 627.56 814.317C628.681 813.644 629.914 813.308 631.259 813.308ZM636.611 821.266C636.611 820.201 636.387 819.277 635.938 818.492C635.509 817.708 634.939 817.11 634.229 816.699C633.519 816.288 632.753 816.082 631.931 816.082C631.109 816.082 630.343 816.288 629.634 816.699C628.924 817.091 628.345 817.679 627.896 818.464C627.467 819.23 627.252 820.145 627.252 821.21C627.252 822.275 627.467 823.209 627.896 824.012C628.345 824.816 628.924 825.432 629.634 825.862C630.362 826.273 631.128 826.478 631.931 826.478C632.753 826.478 633.519 826.273 634.229 825.862C634.939 825.451 635.509 824.853 635.938 824.068C636.387 823.265 636.611 822.331 636.611 821.266Z" fill="black"/>
<path d="M857.304 763.319H847.917V768.895C848.309 768.372 848.888 767.933 849.654 767.578C850.439 767.223 851.27 767.046 852.148 767.046C853.717 767.046 854.987 767.382 855.959 768.054C856.949 768.727 857.649 769.577 858.06 770.604C858.49 771.632 858.705 772.715 858.705 773.855C858.705 775.237 858.434 776.47 857.892 777.553C857.369 778.618 856.575 779.459 855.51 780.075C854.464 780.692 853.175 781 851.644 781C849.607 781 847.973 780.496 846.74 779.487C845.507 778.478 844.769 777.142 844.526 775.48H847.636C847.842 776.358 848.3 777.058 849.01 777.581C849.719 778.086 850.607 778.338 851.672 778.338C852.998 778.338 853.988 777.936 854.642 777.133C855.314 776.33 855.651 775.265 855.651 773.939C855.651 772.594 855.314 771.566 854.642 770.856C853.969 770.128 852.979 769.764 851.672 769.764C850.756 769.764 849.981 769.997 849.346 770.464C848.729 770.912 848.281 771.529 848.001 772.313H844.974V760.517H857.304V763.319ZM862.03 770.52C862.03 767.288 862.572 764.766 863.655 762.954C864.758 761.124 866.644 760.208 869.316 760.208C871.987 760.208 873.864 761.124 874.948 762.954C876.05 764.766 876.601 767.288 876.601 770.52C876.601 773.789 876.05 776.349 874.948 778.198C873.864 780.029 871.987 780.944 869.316 780.944C866.644 780.944 864.758 780.029 863.655 778.198C862.572 776.349 862.03 773.789 862.03 770.52ZM873.463 770.52C873.463 769.007 873.36 767.727 873.154 766.681C872.968 765.635 872.575 764.785 871.978 764.131C871.38 763.459 870.492 763.123 869.316 763.123C868.139 763.123 867.251 763.459 866.654 764.131C866.056 764.785 865.654 765.635 865.449 766.681C865.262 767.727 865.168 769.007 865.168 770.52C865.168 772.089 865.262 773.406 865.449 774.471C865.636 775.536 866.028 776.395 866.626 777.049C867.242 777.703 868.139 778.03 869.316 778.03C870.492 778.03 871.38 777.703 871.978 777.049C872.594 776.395 872.996 775.536 873.183 774.471C873.369 773.406 873.463 772.089 873.463 770.52ZM879.981 770.52C879.981 767.288 880.523 764.766 881.606 762.954C882.709 761.124 884.595 760.208 887.267 760.208C889.938 760.208 891.815 761.124 892.899 762.954C894.001 764.766 894.552 767.288 894.552 770.52C894.552 773.789 894.001 776.349 892.899 778.198C891.815 780.029 889.938 780.944 887.267 780.944C884.595 780.944 882.709 780.029 881.606 778.198C880.523 776.349 879.981 773.789 879.981 770.52ZM891.414 770.52C891.414 769.007 891.311 767.727 891.105 766.681C890.919 765.635 890.526 764.785 889.929 764.131C889.331 763.459 888.443 763.123 887.267 763.123C886.09 763.123 885.202 763.459 884.605 764.131C884.007 764.785 883.605 765.635 883.4 766.681C883.213 767.727 883.119 769.007 883.119 770.52C883.119 772.089 883.213 773.406 883.4 774.471C883.587 775.536 883.979 776.395 884.577 777.049C885.193 777.703 886.09 778.03 887.267 778.03C888.443 778.03 889.331 777.703 889.929 777.049C890.545 776.395 890.947 775.536 891.134 774.471C891.32 773.406 891.414 772.089 891.414 770.52ZM913.617 765.308C914.794 765.308 915.84 765.56 916.756 766.065C917.69 766.569 918.418 767.316 918.941 768.306C919.483 769.297 919.754 770.492 919.754 771.893V781H916.588V772.37C916.588 770.987 916.242 769.932 915.551 769.203C914.86 768.456 913.916 768.082 912.721 768.082C911.525 768.082 910.572 768.456 909.863 769.203C909.171 769.932 908.826 770.987 908.826 772.37V781H905.631V760.264H908.826V767.354C909.367 766.7 910.049 766.196 910.871 765.841C911.712 765.486 912.627 765.308 913.617 765.308ZM930.526 781.252C929.069 781.252 927.752 780.925 926.575 780.271C925.398 779.599 924.473 778.665 923.801 777.469C923.128 776.255 922.792 774.854 922.792 773.266C922.792 771.697 923.137 770.305 923.829 769.091C924.52 767.877 925.463 766.943 926.659 766.289C927.854 765.635 929.19 765.308 930.666 765.308C932.142 765.308 933.477 765.635 934.673 766.289C935.868 766.943 936.812 767.877 937.503 769.091C938.194 770.305 938.54 771.697 938.54 773.266C938.54 774.835 938.185 776.227 937.475 777.441C936.765 778.656 935.794 779.599 934.561 780.271C933.346 780.925 932.001 781.252 930.526 781.252ZM930.526 778.478C931.348 778.478 932.114 778.282 932.823 777.89C933.552 777.497 934.14 776.909 934.589 776.124C935.037 775.34 935.261 774.387 935.261 773.266C935.261 772.145 935.046 771.202 934.617 770.436C934.187 769.651 933.617 769.063 932.907 768.671C932.198 768.278 931.432 768.082 930.61 768.082C929.788 768.082 929.022 768.278 928.312 768.671C927.621 769.063 927.07 769.651 926.659 770.436C926.248 771.202 926.042 772.145 926.042 773.266C926.042 774.929 926.463 776.218 927.303 777.133C928.163 778.03 929.237 778.478 930.526 778.478ZM955.68 765.56V781H952.486V779.179C951.981 779.814 951.318 780.318 950.496 780.692C949.693 781.047 948.834 781.224 947.918 781.224C946.704 781.224 945.611 780.972 944.64 780.468C943.687 779.963 942.93 779.216 942.37 778.226C941.828 777.236 941.557 776.04 941.557 774.639V765.56H944.724V774.163C944.724 775.545 945.069 776.61 945.761 777.357C946.452 778.086 947.395 778.45 948.591 778.45C949.786 778.45 950.73 778.086 951.421 777.357C952.131 776.61 952.486 775.545 952.486 774.163V765.56H955.68ZM963.089 767.802C963.556 767.017 964.173 766.41 964.939 765.981C965.723 765.532 966.648 765.308 967.713 765.308V768.615H966.9C965.648 768.615 964.696 768.932 964.042 769.567C963.407 770.203 963.089 771.305 963.089 772.874V781H959.895V765.56H963.089V767.802ZM828.503 812.996C829.549 813.183 830.436 813.734 831.165 814.65C831.894 815.565 832.258 816.602 832.258 817.76C832.258 818.75 831.996 819.647 831.473 820.45C830.969 821.235 830.231 821.86 829.26 822.327C828.288 822.776 827.158 823 825.869 823H818.079V803.525H825.505C826.831 803.525 827.971 803.75 828.923 804.198C829.876 804.646 830.595 805.253 831.081 806.019C831.567 806.766 831.81 807.607 831.81 808.541C831.81 809.662 831.511 810.596 830.913 811.343C830.315 812.09 829.512 812.642 828.503 812.996ZM821.274 811.708H825.225C826.271 811.708 827.083 811.474 827.662 811.007C828.26 810.521 828.559 809.83 828.559 808.933C828.559 808.055 828.26 807.374 827.662 806.888C827.083 806.384 826.271 806.131 825.225 806.131H821.274V811.708ZM825.589 820.394C826.672 820.394 827.522 820.133 828.139 819.609C828.755 819.086 829.063 818.358 829.063 817.424C829.063 816.471 828.737 815.715 828.083 815.154C827.429 814.594 826.56 814.313 825.477 814.313H821.274V820.394H825.589ZM849.712 807.56V823H846.517V821.179C846.013 821.814 845.35 822.318 844.528 822.692C843.725 823.047 842.865 823.224 841.95 823.224C840.736 823.224 839.643 822.972 838.671 822.468C837.719 821.963 836.962 821.216 836.402 820.226C835.86 819.236 835.589 818.04 835.589 816.639V807.56H838.755V816.163C838.755 817.545 839.101 818.61 839.792 819.357C840.483 820.086 841.427 820.45 842.622 820.45C843.818 820.45 844.761 820.086 845.452 819.357C846.162 818.61 846.517 817.545 846.517 816.163V807.56H849.712ZM857.121 809.802C857.588 809.017 858.204 808.41 858.97 807.981C859.755 807.532 860.68 807.308 861.744 807.308V810.615H860.932C859.68 810.615 858.727 810.932 858.074 811.567C857.438 812.203 857.121 813.305 857.121 814.874V823H853.926V807.56H857.121V809.802ZM872.47 807.308C873.685 807.308 874.768 807.56 875.721 808.065C876.692 808.569 877.449 809.316 877.991 810.306C878.532 811.297 878.803 812.492 878.803 813.893V823H875.637V814.37C875.637 812.987 875.291 811.932 874.6 811.203C873.909 810.456 872.966 810.082 871.77 810.082C870.574 810.082 869.622 810.456 868.912 811.203C868.221 811.932 867.875 812.987 867.875 814.37V823H864.681V807.56H867.875V809.326C868.398 808.691 869.061 808.196 869.865 807.841C870.686 807.486 871.555 807.308 872.47 807.308ZM884.503 805.515C883.924 805.515 883.438 805.319 883.046 804.926C882.654 804.534 882.458 804.048 882.458 803.469C882.458 802.89 882.654 802.405 883.046 802.012C883.438 801.62 883.924 801.424 884.503 801.424C885.064 801.424 885.54 801.62 885.932 802.012C886.325 802.405 886.521 802.89 886.521 803.469C886.521 804.048 886.325 804.534 885.932 804.926C885.54 805.319 885.064 805.515 884.503 805.515ZM886.072 807.56V823H882.878V807.56H886.072ZM898.056 807.308C899.27 807.308 900.354 807.56 901.307 808.065C902.278 808.569 903.035 809.316 903.576 810.306C904.118 811.297 904.389 812.492 904.389 813.893V823H901.223V814.37C901.223 812.987 900.877 811.932 900.186 811.203C899.495 810.456 898.551 810.082 897.356 810.082C896.16 810.082 895.207 810.456 894.497 811.203C893.806 811.932 893.461 812.987 893.461 814.37V823H890.266V807.56H893.461V809.326C893.984 808.691 894.647 808.196 895.45 807.841C896.272 807.486 897.141 807.308 898.056 807.308ZM914.684 807.308C915.88 807.308 916.935 807.551 917.851 808.037C918.785 808.504 919.513 809.092 920.036 809.802V807.56H923.259V823.252C923.259 824.672 922.96 825.933 922.362 827.035C921.764 828.156 920.896 829.034 919.756 829.669C918.635 830.304 917.29 830.622 915.721 830.622C913.629 830.622 911.891 830.127 910.509 829.137C909.127 828.165 908.342 826.839 908.155 825.158H911.322C911.565 825.961 912.078 826.605 912.863 827.091C913.666 827.595 914.619 827.848 915.721 827.848C917.01 827.848 918.047 827.455 918.831 826.671C919.635 825.886 920.036 824.747 920.036 823.252V820.674C919.495 821.403 918.757 822.019 917.823 822.524C916.907 823.009 915.861 823.252 914.684 823.252C913.339 823.252 912.106 822.916 910.985 822.243C909.883 821.552 909.005 820.6 908.351 819.385C907.716 818.152 907.399 816.761 907.399 815.21C907.399 813.66 907.716 812.287 908.351 811.091C909.005 809.895 909.883 808.971 910.985 808.317C912.106 807.644 913.339 807.308 914.684 807.308ZM920.036 815.266C920.036 814.201 919.812 813.277 919.364 812.492C918.934 811.708 918.364 811.11 917.654 810.699C916.945 810.288 916.179 810.082 915.357 810.082C914.535 810.082 913.769 810.288 913.059 810.699C912.349 811.091 911.77 811.679 911.322 812.464C910.892 813.23 910.677 814.145 910.677 815.21C910.677 816.275 910.892 817.209 911.322 818.012C911.77 818.816 912.349 819.432 913.059 819.862C913.788 820.273 914.553 820.478 915.357 820.478C916.179 820.478 916.945 820.273 917.654 819.862C918.364 819.451 918.934 818.853 919.364 818.068C919.812 817.265 920.036 816.331 920.036 815.266ZM937.928 802.264V823H934.733V802.264H937.928ZM943.747 805.515C943.168 805.515 942.682 805.319 942.29 804.926C941.898 804.534 941.701 804.048 941.701 803.469C941.701 802.89 941.898 802.405 942.29 802.012C942.682 801.62 943.168 801.424 943.747 801.424C944.307 801.424 944.784 801.62 945.176 802.012C945.568 802.405 945.764 802.89 945.764 803.469C945.764 804.048 945.568 804.534 945.176 804.926C944.784 805.319 944.307 805.515 943.747 805.515ZM945.316 807.56V823H942.122V807.56H945.316ZM955.731 807.308C956.926 807.308 957.982 807.551 958.897 808.037C959.831 808.504 960.56 809.092 961.083 809.802V807.56H964.305V823.252C964.305 824.672 964.006 825.933 963.408 827.035C962.811 828.156 961.942 829.034 960.803 829.669C959.682 830.304 958.337 830.622 956.768 830.622C954.675 830.622 952.938 830.127 951.556 829.137C950.173 828.165 949.389 826.839 949.202 825.158H952.368C952.611 825.961 953.125 826.605 953.909 827.091C954.713 827.595 955.665 827.848 956.768 827.848C958.056 827.848 959.093 827.455 959.878 826.671C960.681 825.886 961.083 824.747 961.083 823.252V820.674C960.541 821.403 959.803 822.019 958.869 822.524C957.954 823.009 956.908 823.252 955.731 823.252C954.386 823.252 953.153 822.916 952.032 822.243C950.93 821.552 950.052 820.6 949.398 819.385C948.763 818.152 948.445 816.761 948.445 815.21C948.445 813.66 948.763 812.287 949.398 811.091C950.052 809.895 950.93 808.971 952.032 808.317C953.153 807.644 954.386 807.308 955.731 807.308ZM961.083 815.266C961.083 814.201 960.859 813.277 960.41 812.492C959.981 811.708 959.411 811.11 958.701 810.699C957.991 810.288 957.225 810.082 956.403 810.082C955.581 810.082 954.815 810.288 954.105 810.699C953.396 811.091 952.817 811.679 952.368 812.464C951.939 813.23 951.724 814.145 951.724 815.21C951.724 816.275 951.939 817.209 952.368 818.012C952.817 818.816 953.396 819.432 954.105 819.862C954.834 820.273 955.6 820.478 956.403 820.478C957.225 820.478 957.991 820.273 958.701 819.862C959.411 819.451 959.981 818.853 960.41 818.068C960.859 817.265 961.083 816.331 961.083 815.266ZM976.487 807.308C977.664 807.308 978.71 807.56 979.625 808.065C980.559 808.569 981.288 809.316 981.811 810.306C982.353 811.297 982.624 812.492 982.624 813.893V823H979.457V814.37C979.457 812.987 979.112 811.932 978.42 811.203C977.729 810.456 976.786 810.082 975.59 810.082C974.395 810.082 973.442 810.456 972.732 811.203C972.041 811.932 971.695 812.987 971.695 814.37V823H968.501V802.264H971.695V809.354C972.237 808.7 972.919 808.196 973.741 807.841C974.581 807.486 975.497 807.308 976.487 807.308ZM990.425 810.166V818.713C990.425 819.292 990.556 819.712 990.817 819.974C991.097 820.217 991.564 820.338 992.218 820.338H994.18V823H991.658C990.219 823 989.117 822.664 988.351 821.991C987.586 821.319 987.203 820.226 987.203 818.713V810.166H985.381V807.56H987.203V803.722H990.425V807.56H994.18V810.166H990.425Z" fill="black"/>
<path d="M177.861 522.203L62 558.778L63.2727 593.633H350.405L351.853 558.778L235.064 522.665L177.861 522.203Z" fill="#559AFF"/>
<path d="M187.196 668.262L144.814 700.835L152.902 725.41L204.557 708.718L261.747 725.503L269.039 702.043L225.51 668.333L187.196 668.262Z" fill="#559AFF"/>
<path d="M62 558.778L62.884 582.913L178.72 552.835L177.861 522.203L62 558.778Z" fill="#4695EE"/>
<path d="M144.814 700.835L187.196 668.262L192.532 696.882L149.523 715.145L144.814 700.835Z" fill="#4695EE"/>
<path d="M176.607 485.406C176.607 485.406 179.159 441.402 206.845 442.006C234.532 442.61 237.077 485.598 237.077 485.598C237.077 485.598 231.547 665.282 218.707 717.071C218.707 717.071 209.579 753.17 194.983 717.071C180.382 680.972 176.607 485.406 176.607 485.406Z" fill="#0073C1"/>
<defs>
<clipPath id="clip0_0_1">
<rect width="733" height="550" fill="white" transform="translate(226 350)"/>
</clipPath>
</defs>
</svg>
