<svg width="946" height="856" viewBox="0 0 946 856" fill="none" xmlns="http://www.w3.org/2000/svg">
<path d="M862.432 556.184C898.017 556.184 926.864 531.966 926.864 502.092C926.864 472.218 898.017 448 862.432 448C826.847 448 798 472.218 798 502.092C798 531.966 826.847 556.184 862.432 556.184Z" fill="#FFF800"/>
<path d="M861.972 664.002C878.354 664.002 891.635 650.722 891.635 634.339C891.635 617.956 878.354 604.676 861.972 604.676C845.589 604.676 832.309 617.956 832.309 634.339C832.309 650.722 845.589 664.002 861.972 664.002Z" fill="#CDCDC9"/>
<path d="M826.742 593.544L799.785 514.766H926.863L898.127 593.544H826.742Z" fill="#FFF800"/>
<path d="M826.742 593.543H898.127L891.634 627.845H832.302L826.742 593.543Z" fill="#CDCDC9"/>
<path d="M366.211 233.148C360.125 233.148 354.499 232.381 349.333 230.847C344.167 229.312 339.641 227.548 335.754 225.553L339.82 210.746C343.758 212.895 347.875 214.71 352.171 216.193C356.519 217.677 361.25 218.418 366.364 218.418C372.604 218.418 377.514 216.909 381.094 213.892C384.674 210.823 386.464 206.655 386.464 201.387C386.464 195.659 384.572 191.183 380.787 187.961C377.054 184.739 371.3 183.128 363.526 183.128H355.01V167.708H363.449C369.586 167.708 374.369 166.276 377.795 163.411C381.273 160.547 383.012 156.584 383.012 151.52C383.012 146.559 381.58 142.774 378.716 140.166C375.903 137.506 371.837 136.177 366.518 136.177C362.17 136.177 358.079 136.944 354.243 138.478C350.458 140.013 346.699 141.956 342.965 144.309L340.357 128.351C344.091 126.306 348.31 124.643 353.015 123.365C357.721 122.086 362.886 121.447 368.512 121.447C375.315 121.447 381.069 122.649 385.774 125.053C390.479 127.456 394.059 130.755 396.514 134.949C398.969 139.143 400.197 143.976 400.197 149.449C400.197 156.353 398.228 162.21 394.29 167.017C390.403 171.825 385.032 175.021 378.179 176.607L378.102 173.078C385.979 174.51 392.218 177.553 396.821 182.207C401.424 186.862 403.726 193.152 403.726 201.08C403.726 207.831 402.115 213.611 398.893 218.418C395.671 223.175 391.221 226.832 385.544 229.389C379.918 231.895 373.474 233.148 366.211 233.148ZM482.905 231L443.165 174.152L482.905 123.595H502.852L462.344 173.999L503.158 231H482.905ZM424.906 231V123.595H441.631V231H424.906ZM558.315 233.148C547.779 233.148 538.496 230.847 530.466 226.243C522.488 221.64 516.248 215.145 511.747 206.757C507.298 198.369 505.073 188.498 505.073 177.144C505.073 165.892 507.451 156.098 512.208 147.761C517.015 139.373 523.613 132.903 532.001 128.351C540.389 123.748 550.004 121.447 560.847 121.447C566.575 121.447 572.048 122.061 577.264 123.288C582.481 124.464 587.008 125.922 590.843 127.661L589.079 142.928C585.038 141.24 580.691 139.833 576.037 138.708C571.383 137.583 566.396 137.021 561.077 137.021C552.433 137.021 545.324 138.811 539.749 142.391C534.174 145.92 530.032 150.727 527.321 156.814C524.661 162.849 523.332 169.6 523.332 177.067C523.332 184.893 524.687 191.848 527.398 197.935C530.16 204.021 534.328 208.829 539.903 212.358C545.478 215.835 552.51 217.574 561 217.574C563.302 217.574 565.961 217.395 568.979 217.037C571.996 216.628 574.886 215.989 577.648 215.119V191.644H561.614V177.144H594.372V225.016C590.332 227.266 585.217 229.184 579.029 230.77C572.84 232.355 565.936 233.148 558.315 233.148Z" fill="black"/>
<path d="M343.125 301V257.989H349.822V301H343.125ZM366.371 301.614C363.975 301.614 361.927 301.348 360.227 300.816C358.527 300.283 357.124 299.72 356.018 299.126L356.694 293.289C357.739 294.006 359.06 294.702 360.657 295.378C362.275 296.033 364.098 296.361 366.126 296.361C367.887 296.361 369.229 296.074 370.15 295.501C371.092 294.907 371.563 294.036 371.563 292.889C371.563 291.947 371.287 291.189 370.734 290.616C370.181 290.022 369.454 289.53 368.553 289.141C367.652 288.752 366.699 288.394 365.696 288.066C364.119 287.554 362.623 286.96 361.21 286.284C359.817 285.608 358.681 284.707 357.8 283.581C356.94 282.434 356.51 280.918 356.51 279.034C356.51 277.395 356.919 275.89 357.739 274.518C358.558 273.145 359.797 272.06 361.456 271.261C363.135 270.442 365.265 270.032 367.846 270.032C369.812 270.032 371.482 270.247 372.854 270.677C374.247 271.087 375.486 271.579 376.571 272.152L375.895 277.836C374.81 276.996 373.632 276.3 372.362 275.747C371.113 275.173 369.648 274.886 367.969 274.886C366.412 274.886 365.173 275.194 364.252 275.808C363.33 276.402 362.869 277.313 362.869 278.542C362.869 279.853 363.412 280.805 364.497 281.399C365.583 281.993 367.273 282.68 369.567 283.458C370.611 283.806 371.635 284.226 372.639 284.717C373.642 285.188 374.554 285.762 375.373 286.438C376.213 287.114 376.878 287.953 377.37 288.957C377.861 289.961 378.107 291.159 378.107 292.551C378.107 294.149 377.718 295.634 376.94 297.006C376.182 298.378 374.943 299.495 373.222 300.355C371.522 301.195 369.239 301.614 366.371 301.614ZM411.845 301.614C408.219 301.614 405.188 300.887 402.751 299.433C400.314 297.959 398.47 296.013 397.221 293.596C395.992 291.159 395.378 288.496 395.378 285.608C395.378 282.802 395.951 280.222 397.098 277.866C398.266 275.511 399.955 273.627 402.167 272.214C404.4 270.78 407.093 270.063 410.247 270.063C412.93 270.063 415.255 270.606 417.221 271.691C419.187 272.777 420.693 274.292 421.737 276.238C422.802 278.184 423.335 280.457 423.335 283.058C423.335 283.591 423.304 284.144 423.242 284.717C423.202 285.291 423.12 285.895 422.997 286.53H402.014C402.28 288.926 402.915 290.831 403.918 292.244C404.922 293.637 406.171 294.63 407.666 295.224C409.162 295.818 410.78 296.115 412.521 296.115C414.077 296.115 415.613 295.941 417.129 295.593C418.644 295.224 420.068 294.702 421.399 294.026L421.983 299.28C420.815 299.833 419.382 300.365 417.682 300.877C415.982 301.369 414.036 301.614 411.845 301.614ZM402.382 282.137H416.76C416.76 280.928 416.535 279.833 416.084 278.85C415.634 277.846 414.917 277.047 413.934 276.453C412.971 275.859 411.722 275.562 410.186 275.562C407.933 275.562 406.182 276.156 404.932 277.344C403.703 278.532 402.853 280.13 402.382 282.137ZM449.643 315.869V295.163L451.026 296.392C450.002 298.112 448.619 299.413 446.878 300.293C445.158 301.174 443.12 301.614 440.765 301.614C437.754 301.614 435.224 300.908 433.176 299.495C431.149 298.061 429.612 296.156 428.568 293.78C427.544 291.384 427.032 288.742 427.032 285.854C427.032 283.048 427.564 280.447 428.629 278.051C429.694 275.654 431.241 273.729 433.268 272.275C435.317 270.8 437.805 270.063 440.734 270.063C443.376 270.063 445.537 270.575 447.216 271.599C448.916 272.603 450.391 273.995 451.64 275.777L449.797 276.76L451.118 270.647H456.064V315.869H449.643ZM441.717 296.115C443.376 296.115 444.82 295.726 446.049 294.948C447.298 294.169 448.261 293.023 448.937 291.507C449.633 289.991 449.981 288.107 449.981 285.854C449.981 282.536 449.223 279.996 447.708 278.235C446.213 276.453 444.216 275.562 441.717 275.562C439.157 275.562 437.16 276.484 435.726 278.327C434.292 280.171 433.576 282.68 433.576 285.854C433.576 289.008 434.292 291.507 435.726 293.35C437.16 295.194 439.157 296.115 441.717 296.115ZM475.049 301.614C472.325 301.614 470.082 301.072 468.321 299.986C466.559 298.901 465.248 297.324 464.388 295.255C463.528 293.186 463.098 290.677 463.098 287.728V270.647H469.519V286.837C469.519 289.889 470.031 292.193 471.055 293.75C472.099 295.306 473.799 296.084 476.155 296.084C477.855 296.084 479.36 295.675 480.671 294.856C482.002 294.036 482.985 292.787 483.62 291.108L482.576 294.487V270.647H488.996V301H483.159L482.361 295.347L483.897 296.822C483.016 298.296 481.818 299.464 480.302 300.324C478.807 301.184 477.056 301.614 475.049 301.614ZM503.198 301.614C501.437 301.614 499.87 301.246 498.498 300.508C497.125 299.751 496.04 298.706 495.241 297.375C494.463 296.044 494.074 294.477 494.074 292.674C494.074 290.954 494.463 289.49 495.241 288.281C496.019 287.052 497.054 286.028 498.344 285.209C499.634 284.39 501.048 283.745 502.584 283.273C504.14 282.782 505.717 282.423 507.315 282.198C508.912 281.973 510.397 281.85 511.77 281.83C511.749 279.433 511.237 277.815 510.233 276.975C509.23 276.115 507.704 275.685 505.656 275.685C504.427 275.685 503.167 275.869 501.877 276.238C500.587 276.586 499.133 277.252 497.515 278.235L496.777 273.012C498.252 272.111 499.901 271.394 501.723 270.862C503.546 270.329 505.431 270.063 507.376 270.063C509.814 270.063 511.831 270.493 513.429 271.353C515.026 272.214 516.224 273.637 517.023 275.624C517.822 277.61 518.221 280.273 518.221 283.611V290.677C518.221 292.152 518.283 293.309 518.405 294.149C518.549 294.968 518.846 295.552 519.296 295.9C519.747 296.248 520.433 296.422 521.355 296.422H522.092L521.293 301.614H519.88C518.365 301.614 517.136 301.451 516.194 301.123C515.272 300.795 514.524 300.334 513.951 299.74C513.377 299.126 512.896 298.399 512.507 297.559C511.421 298.788 510.07 299.771 508.452 300.508C506.854 301.246 505.103 301.614 503.198 301.614ZM505.164 296.576C506.311 296.576 507.489 296.289 508.697 295.716C509.926 295.142 510.961 294.344 511.8 293.32V286.192C509.506 286.294 507.53 286.571 505.871 287.022C504.232 287.452 502.963 288.107 502.061 288.988C501.181 289.868 500.74 290.995 500.74 292.367C500.74 293.842 501.13 294.917 501.908 295.593C502.686 296.248 503.772 296.576 505.164 296.576ZM534.092 301.614C532.208 301.614 530.692 301.256 529.546 300.539C528.399 299.822 527.559 298.89 527.026 297.743C526.514 296.576 526.258 295.337 526.258 294.026V254.917H532.679V290.862C532.679 292.541 532.782 293.78 532.986 294.579C533.212 295.357 533.632 295.859 534.246 296.084C534.881 296.31 535.813 296.422 537.042 296.422L536.304 301.614H534.092ZM565.501 301.614C563.596 301.614 562.05 301.246 560.862 300.508C559.695 299.771 558.835 298.829 558.282 297.682C557.749 296.535 557.483 295.327 557.483 294.057V275.777H552.659L553.243 270.647H557.483V263.489L563.904 262.813V270.647H571.338V275.777H563.904V290.8C563.904 292.562 564.006 293.842 564.211 294.641C564.416 295.419 564.917 295.91 565.716 296.115C566.515 296.32 567.785 296.422 569.526 296.422H571.246L570.693 301.614H565.501ZM589.519 301.614C586.303 301.614 583.549 300.908 581.255 299.495C578.981 298.061 577.24 296.156 576.032 293.78C574.844 291.384 574.25 288.742 574.25 285.854C574.25 282.946 574.844 280.293 576.032 277.897C577.24 275.501 578.981 273.596 581.255 272.183C583.549 270.749 586.303 270.032 589.519 270.032C592.755 270.032 595.51 270.749 597.783 272.183C600.077 273.596 601.818 275.501 603.006 277.897C604.214 280.293 604.818 282.946 604.818 285.854C604.818 288.742 604.214 291.384 603.006 293.78C601.818 296.156 600.077 298.061 597.783 299.495C595.51 300.908 592.755 301.614 589.519 301.614ZM589.519 296.115C592.345 296.115 594.506 295.194 596.001 293.35C597.517 291.507 598.275 289.008 598.275 285.854C598.275 282.68 597.517 280.16 596.001 278.297C594.506 276.433 592.345 275.501 589.519 275.501C586.734 275.501 584.583 276.433 583.067 278.297C581.552 280.16 580.794 282.68 580.794 285.854C580.794 289.008 581.552 291.507 583.067 293.35C584.583 295.194 586.734 296.115 589.519 296.115Z" fill="#A6A6A6"/>
<path d="M702.858 225.883C687.179 221.874 675.172 213.024 666.836 199.333C658.494 185.64 656.327 170.957 660.334 155.283C663.769 141.849 670.878 130.914 681.663 122.478C692.447 114.042 704.761 110.034 718.604 110.454C726.963 95.7098 738.858 85.0809 754.291 78.5674C769.723 72.054 785.623 70.8897 801.991 75.0747C822.15 80.2289 837.455 91.6175 847.906 109.241C858.361 126.872 861.013 145.764 855.861 165.916C867.397 170.333 875.953 177.978 881.529 188.85C887.096 199.727 888.361 211.107 885.322 222.992C882.019 235.909 874.691 245.735 863.336 252.469C851.976 259.194 839.834 260.905 826.912 257.601L702.858 225.883Z" fill="#5EB2E5"/>
<path d="M164.598 157.121C154.128 157.37 145.098 153.961 137.507 146.892C129.911 139.823 125.988 131.056 125.739 120.59C125.525 111.62 128.038 103.562 133.279 96.4176C138.519 89.2732 145.487 84.6193 154.185 82.4558C156.809 71.8064 162.357 63.1012 170.83 56.3401C179.302 49.579 189.003 46.0682 199.933 45.8077C213.394 45.487 224.923 49.9003 234.521 59.0479C244.123 68.1999 249.085 79.5039 249.405 92.9599C257.366 93.6908 264.035 96.9542 269.413 102.75C274.787 108.551 277.568 115.419 277.757 123.354C277.963 131.98 275.119 139.385 269.225 145.569C263.326 151.749 256.062 154.941 247.434 155.147L164.598 157.121Z" fill="#5EB2E5"/>
<path d="M492.365 57.7432C487.113 57.8684 482.583 56.158 478.775 52.612C474.965 49.0662 472.997 44.6682 472.872 39.4182C472.765 34.9182 474.026 30.8763 476.654 27.2924C479.283 23.7086 482.779 21.374 487.142 20.2887C488.458 14.9466 491.241 10.5798 495.491 7.1882C499.741 3.79659 504.608 2.03546 510.091 1.90481C516.843 1.7439 522.626 3.9578 527.441 8.54651C532.258 13.1375 534.747 18.8079 534.907 25.5579C538.901 25.9246 542.246 27.5616 544.944 30.469C547.64 33.3788 549.035 36.824 549.13 40.8048C549.233 45.1317 547.806 48.8462 544.85 51.9484C541.891 55.0483 538.247 56.6499 533.918 56.753L492.365 57.7432Z" fill="#5EB2E5"/>
<path d="M724.736 190.936C719.93 189.707 715.933 187.577 712.745 184.546C709.579 181.522 707.427 177.857 706.287 173.554C705.154 169.227 705.239 164.51 706.545 159.404C707.851 154.297 710.048 150.133 713.136 146.91C716.254 143.67 719.962 141.492 724.26 140.375C728.558 139.259 733.11 139.315 737.916 140.543C740.411 141.181 742.689 142.047 744.748 143.139C746.807 144.232 748.55 145.404 749.978 146.655L747.33 153.548C745.81 152.273 744.127 151.104 742.281 150.041C740.436 148.979 738.358 148.152 736.048 147.561C732.397 146.628 729.14 146.657 726.277 147.648C723.421 148.616 721.005 150.313 719.031 152.737C717.087 155.145 715.674 158.07 714.794 161.513C713.914 164.955 713.734 168.208 714.256 171.271C714.806 174.316 716.088 176.958 718.101 179.196C720.142 181.416 722.965 182.987 726.57 183.909C728.95 184.517 731.175 184.815 733.246 184.803C735.346 184.774 737.432 184.557 739.505 184.151L738.52 191.469C736.534 191.823 734.376 191.985 732.045 191.955C729.737 191.931 727.301 191.591 724.736 190.936ZM765.742 201.42C761.121 200.238 757.274 198.147 754.201 195.146C751.128 192.145 749.045 188.498 747.951 184.206C746.864 179.891 746.973 175.18 748.278 170.074C749.584 164.968 751.747 160.794 754.766 157.554C757.791 154.29 761.372 152.079 765.508 150.921C769.644 149.763 774.023 149.775 778.644 150.957C783.265 152.138 787.112 154.23 790.185 157.231C793.258 160.232 795.338 163.89 796.426 168.205C797.519 172.497 797.413 177.196 796.107 182.303C794.802 187.409 792.636 191.594 789.611 194.858C786.592 198.098 783.014 200.297 778.878 201.455C774.742 202.613 770.363 202.601 765.742 201.42ZM767.612 194.107C771.124 195.005 774.259 194.97 777.018 194.001C779.776 193.032 782.09 191.347 783.96 188.945C785.858 186.526 787.239 183.629 788.101 180.256C788.964 176.882 789.14 173.69 788.63 170.68C788.148 167.652 786.93 165.051 784.975 162.877C783.02 160.704 780.286 159.168 776.774 158.27C773.262 157.372 770.127 157.407 767.368 158.376C764.61 159.344 762.281 161.038 760.383 163.458C758.513 165.86 757.147 168.747 756.285 172.121C755.422 175.494 755.232 178.695 755.713 181.723C756.223 184.733 757.456 187.326 759.411 189.499C761.366 191.673 764.1 193.209 767.612 194.107ZM796.091 208.109L814.209 191.547C816.36 189.586 818.186 187.837 819.686 186.3C821.187 184.764 822.374 183.345 823.249 182.042C824.129 180.716 824.744 179.372 825.093 178.009C825.66 175.79 825.473 173.872 824.533 172.253C823.616 170.64 822.06 169.553 819.865 168.992C817.509 168.389 815.221 168.383 813.002 168.973C810.784 169.562 808.674 170.45 806.672 171.637L807.721 163.634C809.895 162.639 812.244 161.972 814.768 161.633C817.292 161.294 819.986 161.49 822.852 162.223C825.786 162.973 828.093 164.203 829.773 165.912C831.459 167.599 832.542 169.574 833.021 171.839C833.53 174.086 833.474 176.422 832.854 178.848C832.34 180.858 831.563 182.74 830.524 184.493C829.485 186.246 828.113 188.049 826.409 189.902C824.71 191.733 822.593 193.801 820.059 196.107L810.835 204.457L827.159 208.63L825.378 215.597L796.091 208.109Z" fill="white"/>
<path d="M382.875 535.577L419.317 448.988C421.193 444.534 425.545 441.641 430.377 441.641H594.364C599.303 441.641 603.734 444.663 605.538 449.26L639.418 535.692C639.962 537.089 640.248 538.578 640.248 540.075V654.501C640.248 661.075 634.965 666.424 628.394 666.503L609.697 666.725C602.789 666.804 597.242 661.053 597.571 654.15C597.9 647.303 596.963 641.574 596.963 641.574H424.951C424.951 641.574 424.951 646.945 424.951 653.577V654.873C424.951 661.505 419.582 666.876 412.954 666.876H393.949C387.32 666.876 381.952 661.505 381.952 654.873V540.232C381.937 538.635 382.259 537.053 382.875 535.577Z" fill="#FF0020"/>
<path d="M382.875 535.577L419.317 448.988C421.193 444.534 425.545 441.641 430.377 441.641H594.364C599.303 441.641 603.734 444.663 605.538 449.26L639.418 535.692C639.962 537.089 640.248 538.578 640.248 540.075V654.501C640.248 661.075 634.965 666.424 628.394 666.503L609.697 666.725C602.789 666.804 597.242 661.053 597.571 654.15C597.9 647.303 596.963 641.574 596.963 641.574H424.951C424.951 641.574 424.951 646.945 424.951 653.577V654.873C424.951 661.505 419.582 666.876 412.954 666.876H393.949C387.32 666.876 381.952 661.505 381.952 654.873V540.232C381.937 538.635 382.259 537.053 382.875 535.577Z" fill="#CA1818"/>
<path d="M409.695 528.95L435.057 461.883H593.776L614.814 528.95H409.695Z" fill="#5EB2E5"/>
<path d="M590.626 598.546C602.502 598.546 612.13 588.914 612.13 577.033C612.13 565.151 602.502 555.52 590.626 555.52C578.75 555.52 569.123 565.151 569.123 577.033C569.123 588.914 578.75 598.546 590.626 598.546Z" fill="#FFD45B"/>
<path d="M433.79 598.546C445.666 598.546 455.294 588.914 455.294 577.033C455.294 565.151 445.666 555.52 433.79 555.52C421.914 555.52 412.287 565.151 412.287 577.033C412.287 588.914 421.914 598.546 433.79 598.546Z" fill="#FFD45B"/>
<path d="M597.513 654.521C597.842 647.674 596.904 641.945 596.904 641.945L597.513 654.521Z" fill="#FF0020"/>
<path d="M596.926 641.982C596.926 641.982 640.534 640.485 640.534 641.982L640.19 654.872C640.19 661.446 634.907 666.796 628.336 666.875L609.639 667.097C602.731 667.176 597.183 661.425 597.513 654.521" fill="black"/>
<path d="M381.938 641.982C381.938 641.982 425.545 640.485 425.545 641.982L425.202 654.872C425.202 661.446 419.919 666.796 413.348 666.875L394.65 667.097C387.743 667.176 382.195 661.425 382.524 654.521" fill="black"/>
<path d="M120.448 719.319H111.061V724.895C111.453 724.372 112.032 723.933 112.798 723.578C113.583 723.223 114.414 723.046 115.292 723.046C116.861 723.046 118.132 723.382 119.103 724.054C120.093 724.727 120.794 725.577 121.205 726.604C121.634 727.632 121.849 728.715 121.849 729.855C121.849 731.237 121.578 732.47 121.036 733.553C120.513 734.618 119.719 735.459 118.655 736.075C117.609 736.692 116.32 737 114.788 737C112.752 737 111.117 736.496 109.884 735.487C108.651 734.478 107.913 733.142 107.67 731.48H110.781C110.986 732.358 111.444 733.058 112.154 733.581C112.864 734.086 113.751 734.338 114.816 734.338C116.142 734.338 117.132 733.936 117.786 733.133C118.458 732.33 118.795 731.265 118.795 729.939C118.795 728.594 118.458 727.566 117.786 726.856C117.113 726.128 116.123 725.764 114.816 725.764C113.9 725.764 113.125 725.997 112.49 726.464C111.874 726.912 111.425 727.529 111.145 728.313H108.119V716.517H120.448V719.319ZM138.982 729.294L146.1 737H141.784L136.068 730.359V737H132.874V716.264H136.068V728.313L141.672 721.56H146.1L138.982 729.294ZM167.079 721.308C168.293 721.308 169.377 721.56 170.33 722.065C171.301 722.569 172.058 723.316 172.599 724.306C173.16 725.297 173.44 726.492 173.44 727.893V737H170.274V728.37C170.274 726.987 169.928 725.932 169.237 725.203C168.546 724.456 167.602 724.082 166.407 724.082C165.211 724.082 164.258 724.456 163.549 725.203C162.857 725.932 162.512 726.987 162.512 728.37V737H159.345V728.37C159.345 726.987 159 725.932 158.309 725.203C157.617 724.456 156.674 724.082 155.478 724.082C154.283 724.082 153.33 724.456 152.62 725.203C151.929 725.932 151.584 726.987 151.584 728.37V737H148.389V721.56H151.584V723.326C152.107 722.691 152.77 722.196 153.573 721.841C154.376 721.486 155.236 721.308 156.151 721.308C157.384 721.308 158.486 721.57 159.457 722.093C160.429 722.616 161.176 723.372 161.699 724.362C162.166 723.428 162.895 722.691 163.885 722.149C164.875 721.588 165.94 721.308 167.079 721.308ZM110.286 766.166H107.427V779H104.205V766.166H102.384V763.56H104.205V762.468C104.205 760.693 104.672 759.404 105.606 758.601C106.559 757.779 108.044 757.368 110.061 757.368V760.03C109.09 760.03 108.408 760.217 108.016 760.59C107.624 760.945 107.427 761.571 107.427 762.468V763.56H110.286V766.166ZM116.311 758.264V779H113.117V758.264H116.311ZM134.403 763.56L124.932 786.257H121.626L124.764 778.748L118.684 763.56H122.242L126.585 775.329L131.097 763.56H134.403ZM138.439 761.515C137.86 761.515 137.374 761.319 136.982 760.926C136.59 760.534 136.394 760.048 136.394 759.469C136.394 758.89 136.59 758.405 136.982 758.012C137.374 757.62 137.86 757.424 138.439 757.424C139 757.424 139.476 757.62 139.868 758.012C140.261 758.405 140.457 758.89 140.457 759.469C140.457 760.048 140.261 760.534 139.868 760.926C139.476 761.319 139 761.515 138.439 761.515ZM140.008 763.56V779H136.814V763.56H140.008ZM151.992 763.308C153.206 763.308 154.29 763.56 155.243 764.065C156.214 764.569 156.971 765.316 157.512 766.306C158.054 767.297 158.325 768.492 158.325 769.893V779H155.159V770.37C155.159 768.987 154.813 767.932 154.122 767.203C153.431 766.456 152.487 766.082 151.292 766.082C150.096 766.082 149.143 766.456 148.434 767.203C147.742 767.932 147.397 768.987 147.397 770.37V779H144.202V763.56H147.397V765.326C147.92 764.691 148.583 764.196 149.386 763.841C150.208 763.486 151.077 763.308 151.992 763.308ZM168.62 763.308C169.816 763.308 170.871 763.551 171.787 764.037C172.721 764.504 173.449 765.092 173.972 765.802V763.56H177.195V779.252C177.195 780.672 176.896 781.933 176.298 783.035C175.7 784.156 174.832 785.034 173.692 785.669C172.571 786.304 171.226 786.622 169.657 786.622C167.565 786.622 165.828 786.127 164.445 785.137C163.063 784.165 162.278 782.839 162.091 781.158H165.258C165.501 781.961 166.014 782.605 166.799 783.091C167.602 783.595 168.555 783.848 169.657 783.848C170.946 783.848 171.983 783.455 172.767 782.671C173.571 781.886 173.972 780.747 173.972 779.252V776.674C173.431 777.403 172.693 778.019 171.759 778.524C170.843 779.009 169.797 779.252 168.62 779.252C167.275 779.252 166.042 778.916 164.922 778.243C163.819 777.552 162.941 776.6 162.288 775.385C161.652 774.152 161.335 772.761 161.335 771.21C161.335 769.66 161.652 768.287 162.288 767.091C162.941 765.895 163.819 764.971 164.922 764.317C166.042 763.644 167.275 763.308 168.62 763.308ZM173.972 771.266C173.972 770.201 173.748 769.277 173.3 768.492C172.87 767.708 172.3 767.11 171.591 766.699C170.881 766.288 170.115 766.082 169.293 766.082C168.471 766.082 167.705 766.288 166.995 766.699C166.285 767.091 165.706 767.679 165.258 768.464C164.828 769.23 164.613 770.145 164.613 771.21C164.613 772.275 164.828 773.209 165.258 774.012C165.706 774.816 166.285 775.432 166.995 775.862C167.724 776.273 168.49 776.478 169.293 776.478C170.115 776.478 170.881 776.273 171.591 775.862C172.3 775.451 172.87 774.853 173.3 774.068C173.748 773.265 173.972 772.331 173.972 771.266Z" fill="black"/>
<path d="M466.168 738.741V736.331L475.583 722.825H479.45V735.967H482.056V738.741H479.45V743H476.311V738.741H466.168ZM476.451 726.075L469.838 735.967H476.451V726.075ZM488.625 739.161L485.235 746.895H483.161L485.151 739.161H488.625ZM504.166 725.319H494.779V730.895C495.171 730.372 495.75 729.933 496.516 729.578C497.301 729.223 498.132 729.046 499.01 729.046C500.579 729.046 501.85 729.382 502.821 730.054C503.811 730.727 504.512 731.577 504.923 732.604C505.352 733.632 505.567 734.715 505.567 735.855C505.567 737.237 505.296 738.47 504.755 739.553C504.232 740.618 503.438 741.459 502.373 742.075C501.327 742.692 500.038 743 498.506 743C496.47 743 494.835 742.496 493.602 741.487C492.369 740.478 491.631 739.142 491.389 737.48H494.499C494.704 738.358 495.162 739.058 495.872 739.581C496.582 740.086 497.469 740.338 498.534 740.338C499.86 740.338 500.85 739.936 501.504 739.133C502.177 738.33 502.513 737.265 502.513 735.939C502.513 734.594 502.177 733.566 501.504 732.856C500.832 732.128 499.842 731.764 498.534 731.764C497.619 731.764 496.843 731.997 496.208 732.464C495.592 732.912 495.143 733.529 494.863 734.313H491.837V722.517H504.166V725.319ZM522.7 735.294L529.818 743H525.502L519.786 736.359V743H516.592V722.264H519.786V734.313L525.39 727.56H529.818L522.7 735.294ZM550.797 727.308C552.012 727.308 553.095 727.56 554.048 728.065C555.019 728.569 555.776 729.316 556.318 730.306C556.878 731.297 557.158 732.492 557.158 733.893V743H553.992V734.37C553.992 732.987 553.646 731.932 552.955 731.203C552.264 730.456 551.32 730.082 550.125 730.082C548.929 730.082 547.977 730.456 547.267 731.203C546.576 731.932 546.23 732.987 546.23 734.37V743H543.064V734.37C543.064 732.987 542.718 731.932 542.027 731.203C541.336 730.456 540.392 730.082 539.197 730.082C538.001 730.082 537.048 730.456 536.338 731.203C535.647 731.932 535.302 732.987 535.302 734.37V743H532.107V727.56H535.302V729.326C535.825 728.691 536.488 728.196 537.291 727.841C538.094 727.486 538.954 727.308 539.869 727.308C541.102 727.308 542.204 727.57 543.176 728.093C544.147 728.616 544.894 729.372 545.417 730.362C545.884 729.428 546.613 728.691 547.603 728.149C548.593 727.588 549.658 727.308 550.797 727.308ZM464.109 777.21C464.109 775.66 464.427 774.287 465.062 773.091C465.716 771.895 466.594 770.971 467.696 770.317C468.817 769.644 470.059 769.308 471.423 769.308C472.432 769.308 473.422 769.532 474.393 769.981C475.383 770.41 476.168 770.989 476.747 771.718V764.264H479.969V785H476.747V782.674C476.224 783.421 475.495 784.038 474.561 784.524C473.646 785.009 472.59 785.252 471.395 785.252C470.05 785.252 468.817 784.916 467.696 784.243C466.594 783.552 465.716 782.6 465.062 781.385C464.427 780.152 464.109 778.761 464.109 777.21ZM476.747 777.266C476.747 776.201 476.523 775.277 476.074 774.492C475.645 773.708 475.075 773.11 474.365 772.699C473.655 772.288 472.889 772.082 472.067 772.082C471.245 772.082 470.479 772.288 469.77 772.699C469.06 773.091 468.481 773.679 468.032 774.464C467.603 775.23 467.388 776.145 467.388 777.21C467.388 778.275 467.603 779.209 468.032 780.012C468.481 780.816 469.06 781.432 469.77 781.862C470.498 782.273 471.264 782.478 472.067 782.478C472.889 782.478 473.655 782.273 474.365 781.862C475.075 781.451 475.645 780.853 476.074 780.068C476.523 779.265 476.747 778.331 476.747 777.266ZM487.359 771.802C487.826 771.017 488.443 770.41 489.209 769.981C489.993 769.532 490.918 769.308 491.983 769.308V772.615H491.17C489.919 772.615 488.966 772.932 488.312 773.567C487.677 774.203 487.359 775.305 487.359 776.874V785H484.165V769.56H487.359V771.802ZM496.544 767.515C495.965 767.515 495.48 767.319 495.087 766.926C494.695 766.534 494.499 766.048 494.499 765.469C494.499 764.89 494.695 764.405 495.087 764.012C495.48 763.62 495.965 763.424 496.544 763.424C497.105 763.424 497.581 763.62 497.973 764.012C498.366 764.405 498.562 764.89 498.562 765.469C498.562 766.048 498.366 766.534 497.973 766.926C497.581 767.319 497.105 767.515 496.544 767.515ZM498.114 769.56V785H494.919V769.56H498.114ZM508.276 782.142L512.647 769.56H516.038L510.153 785H506.343L500.486 769.56H503.905L508.276 782.142ZM520.078 767.515C519.499 767.515 519.013 767.319 518.621 766.926C518.228 766.534 518.032 766.048 518.032 765.469C518.032 764.89 518.228 764.405 518.621 764.012C519.013 763.62 519.499 763.424 520.078 763.424C520.638 763.424 521.115 763.62 521.507 764.012C521.899 764.405 522.095 764.89 522.095 765.469C522.095 766.048 521.899 766.534 521.507 766.926C521.115 767.319 520.638 767.515 520.078 767.515ZM521.647 769.56V785H518.453V769.56H521.647ZM533.631 769.308C534.845 769.308 535.928 769.56 536.881 770.065C537.853 770.569 538.609 771.316 539.151 772.306C539.693 773.297 539.963 774.492 539.963 775.893V785H536.797V776.37C536.797 774.987 536.452 773.932 535.76 773.203C535.069 772.456 534.126 772.082 532.93 772.082C531.735 772.082 530.782 772.456 530.072 773.203C529.381 773.932 529.035 774.987 529.035 776.37V785H525.841V769.56H529.035V771.326C529.558 770.691 530.222 770.196 531.025 769.841C531.847 769.486 532.715 769.308 533.631 769.308ZM550.259 769.308C551.454 769.308 552.51 769.551 553.425 770.037C554.359 770.504 555.088 771.092 555.611 771.802V769.56H558.833V785.252C558.833 786.672 558.534 787.933 557.937 789.035C557.339 790.156 556.47 791.034 555.331 791.669C554.21 792.304 552.865 792.622 551.296 792.622C549.203 792.622 547.466 792.127 546.084 791.137C544.701 790.165 543.917 788.839 543.73 787.158H546.896C547.139 787.961 547.653 788.605 548.437 789.091C549.241 789.595 550.193 789.848 551.296 789.848C552.585 789.848 553.621 789.455 554.406 788.671C555.209 787.886 555.611 786.747 555.611 785.252V782.674C555.069 783.403 554.331 784.019 553.397 784.524C552.482 785.009 551.436 785.252 550.259 785.252C548.914 785.252 547.681 784.916 546.56 784.243C545.458 783.552 544.58 782.6 543.926 781.385C543.291 780.152 542.973 778.761 542.973 777.21C542.973 775.66 543.291 774.287 543.926 773.091C544.58 771.895 545.458 770.971 546.56 770.317C547.681 769.644 548.914 769.308 550.259 769.308ZM555.611 777.266C555.611 776.201 555.387 775.277 554.938 774.492C554.509 773.708 553.939 773.11 553.229 772.699C552.519 772.288 551.753 772.082 550.931 772.082C550.109 772.082 549.343 772.288 548.634 772.699C547.924 773.091 547.345 773.679 546.896 774.464C546.467 775.23 546.252 776.145 546.252 777.21C546.252 778.275 546.467 779.209 546.896 780.012C547.345 780.816 547.924 781.432 548.634 781.862C549.362 782.273 550.128 782.478 550.931 782.478C551.753 782.478 552.519 782.273 553.229 781.862C553.939 781.451 554.509 780.853 554.938 780.068C555.387 779.265 555.611 778.331 555.611 777.266Z" fill="black"/>
<path d="M798.304 725.319H788.917V730.895C789.309 730.372 789.888 729.933 790.654 729.578C791.439 729.223 792.27 729.046 793.148 729.046C794.717 729.046 795.987 729.382 796.959 730.054C797.949 730.727 798.649 731.577 799.06 732.604C799.49 733.632 799.705 734.715 799.705 735.855C799.705 737.237 799.434 738.47 798.892 739.553C798.369 740.618 797.575 741.459 796.51 742.075C795.464 742.692 794.175 743 792.644 743C790.607 743 788.973 742.496 787.74 741.487C786.507 740.478 785.769 739.142 785.526 737.48H788.636C788.842 738.358 789.3 739.058 790.01 739.581C790.719 740.086 791.607 740.338 792.672 740.338C793.998 740.338 794.988 739.936 795.642 739.133C796.314 738.33 796.651 737.265 796.651 735.939C796.651 734.594 796.314 733.566 795.642 732.856C794.969 732.128 793.979 731.764 792.672 731.764C791.756 731.764 790.981 731.997 790.346 732.464C789.729 732.912 789.281 733.529 789.001 734.313H785.974V722.517H798.304V725.319ZM803.03 732.52C803.03 729.288 803.572 726.766 804.655 724.954C805.758 723.124 807.644 722.208 810.316 722.208C812.987 722.208 814.864 723.124 815.948 724.954C817.05 726.766 817.601 729.288 817.601 732.52C817.601 735.789 817.05 738.349 815.948 740.198C814.864 742.029 812.987 742.944 810.316 742.944C807.644 742.944 805.758 742.029 804.655 740.198C803.572 738.349 803.03 735.789 803.03 732.52ZM814.463 732.52C814.463 731.007 814.36 729.727 814.154 728.681C813.968 727.635 813.575 726.785 812.978 726.131C812.38 725.459 811.492 725.123 810.316 725.123C809.139 725.123 808.251 725.459 807.654 726.131C807.056 726.785 806.654 727.635 806.449 728.681C806.262 729.727 806.168 731.007 806.168 732.52C806.168 734.089 806.262 735.406 806.449 736.471C806.636 737.536 807.028 738.395 807.626 739.049C808.242 739.703 809.139 740.03 810.316 740.03C811.492 740.03 812.38 739.703 812.978 739.049C813.594 738.395 813.996 737.536 814.183 736.471C814.369 735.406 814.463 734.089 814.463 732.52ZM820.981 732.52C820.981 729.288 821.523 726.766 822.606 724.954C823.709 723.124 825.595 722.208 828.267 722.208C830.938 722.208 832.815 723.124 833.899 724.954C835.001 726.766 835.552 729.288 835.552 732.52C835.552 735.789 835.001 738.349 833.899 740.198C832.815 742.029 830.938 742.944 828.267 742.944C825.595 742.944 823.709 742.029 822.606 740.198C821.523 738.349 820.981 735.789 820.981 732.52ZM832.414 732.52C832.414 731.007 832.311 729.727 832.105 728.681C831.919 727.635 831.526 726.785 830.929 726.131C830.331 725.459 829.443 725.123 828.267 725.123C827.09 725.123 826.202 725.459 825.605 726.131C825.007 726.785 824.605 727.635 824.4 728.681C824.213 729.727 824.119 731.007 824.119 732.52C824.119 734.089 824.213 735.406 824.4 736.471C824.587 737.536 824.979 738.395 825.577 739.049C826.193 739.703 827.09 740.03 828.267 740.03C829.443 740.03 830.331 739.703 830.929 739.049C831.545 738.395 831.947 737.536 832.134 736.471C832.32 735.406 832.414 734.089 832.414 732.52ZM854.617 727.308C855.794 727.308 856.84 727.56 857.756 728.065C858.69 728.569 859.418 729.316 859.941 730.306C860.483 731.297 860.754 732.492 860.754 733.893V743H857.588V734.37C857.588 732.987 857.242 731.932 856.551 731.203C855.86 730.456 854.916 730.082 853.721 730.082C852.525 730.082 851.572 730.456 850.863 731.203C850.171 731.932 849.826 732.987 849.826 734.37V743H846.631V722.264H849.826V729.354C850.367 728.7 851.049 728.196 851.871 727.841C852.712 727.486 853.627 727.308 854.617 727.308ZM871.526 743.252C870.069 743.252 868.752 742.925 867.575 742.271C866.398 741.599 865.473 740.665 864.801 739.469C864.128 738.255 863.792 736.854 863.792 735.266C863.792 733.697 864.137 732.305 864.829 731.091C865.52 729.877 866.463 728.943 867.659 728.289C868.854 727.635 870.19 727.308 871.666 727.308C873.142 727.308 874.477 727.635 875.673 728.289C876.868 728.943 877.812 729.877 878.503 731.091C879.194 732.305 879.54 733.697 879.54 735.266C879.54 736.835 879.185 738.227 878.475 739.441C877.765 740.656 876.794 741.599 875.561 742.271C874.346 742.925 873.001 743.252 871.526 743.252ZM871.526 740.478C872.348 740.478 873.114 740.282 873.823 739.89C874.552 739.497 875.14 738.909 875.589 738.124C876.037 737.34 876.261 736.387 876.261 735.266C876.261 734.145 876.046 733.202 875.617 732.436C875.187 731.651 874.617 731.063 873.907 730.671C873.198 730.278 872.432 730.082 871.61 730.082C870.788 730.082 870.022 730.278 869.312 730.671C868.621 731.063 868.07 731.651 867.659 732.436C867.248 733.202 867.042 734.145 867.042 735.266C867.042 736.929 867.463 738.218 868.303 739.133C869.163 740.03 870.237 740.478 871.526 740.478ZM896.68 727.56V743H893.486V741.179C892.981 741.814 892.318 742.318 891.496 742.692C890.693 743.047 889.834 743.224 888.918 743.224C887.704 743.224 886.611 742.972 885.64 742.468C884.687 741.963 883.93 741.216 883.37 740.226C882.828 739.236 882.557 738.04 882.557 736.639V727.56H885.724V736.163C885.724 737.545 886.069 738.61 886.761 739.357C887.452 740.086 888.395 740.45 889.591 740.45C890.786 740.45 891.73 740.086 892.421 739.357C893.131 738.61 893.486 737.545 893.486 736.163V727.56H896.68ZM904.089 729.802C904.556 729.017 905.173 728.41 905.939 727.981C906.723 727.532 907.648 727.308 908.713 727.308V730.615H907.9C906.648 730.615 905.696 730.932 905.042 731.567C904.407 732.203 904.089 733.305 904.089 734.874V743H900.895V727.56H904.089V729.802ZM769.503 774.996C770.549 775.183 771.436 775.734 772.165 776.65C772.894 777.565 773.258 778.602 773.258 779.76C773.258 780.75 772.996 781.647 772.473 782.45C771.969 783.235 771.231 783.86 770.26 784.327C769.288 784.776 768.158 785 766.869 785H759.079V765.525H766.505C767.831 765.525 768.971 765.75 769.923 766.198C770.876 766.646 771.595 767.253 772.081 768.019C772.567 768.766 772.81 769.607 772.81 770.541C772.81 771.662 772.511 772.596 771.913 773.343C771.315 774.09 770.512 774.642 769.503 774.996ZM762.274 773.708H766.225C767.271 773.708 768.083 773.474 768.662 773.007C769.26 772.521 769.559 771.83 769.559 770.933C769.559 770.055 769.26 769.374 768.662 768.888C768.083 768.384 767.271 768.131 766.225 768.131H762.274V773.708ZM766.589 782.394C767.672 782.394 768.522 782.133 769.139 781.609C769.755 781.086 770.063 780.358 770.063 779.424C770.063 778.471 769.737 777.715 769.083 777.154C768.429 776.594 767.56 776.313 766.477 776.313H762.274V782.394H766.589ZM790.712 769.56V785H787.517V783.179C787.013 783.814 786.35 784.318 785.528 784.692C784.725 785.047 783.865 785.224 782.95 785.224C781.736 785.224 780.643 784.972 779.671 784.468C778.719 783.963 777.962 783.216 777.402 782.226C776.86 781.236 776.589 780.04 776.589 778.639V769.56H779.755V778.163C779.755 779.545 780.101 780.61 780.792 781.357C781.483 782.086 782.427 782.45 783.622 782.45C784.818 782.45 785.761 782.086 786.452 781.357C787.162 780.61 787.517 779.545 787.517 778.163V769.56H790.712ZM798.121 771.802C798.588 771.017 799.204 770.41 799.97 769.981C800.755 769.532 801.68 769.308 802.744 769.308V772.615H801.932C800.68 772.615 799.727 772.932 799.074 773.567C798.438 774.203 798.121 775.305 798.121 776.874V785H794.926V769.56H798.121V771.802ZM813.47 769.308C814.685 769.308 815.768 769.56 816.721 770.065C817.692 770.569 818.449 771.316 818.991 772.306C819.532 773.297 819.803 774.492 819.803 775.893V785H816.637V776.37C816.637 774.987 816.291 773.932 815.6 773.203C814.909 772.456 813.966 772.082 812.77 772.082C811.574 772.082 810.622 772.456 809.912 773.203C809.221 773.932 808.875 774.987 808.875 776.37V785H805.681V769.56H808.875V771.326C809.398 770.691 810.061 770.196 810.865 769.841C811.686 769.486 812.555 769.308 813.47 769.308ZM825.503 767.515C824.924 767.515 824.438 767.319 824.046 766.926C823.654 766.534 823.458 766.048 823.458 765.469C823.458 764.89 823.654 764.405 824.046 764.012C824.438 763.62 824.924 763.424 825.503 763.424C826.064 763.424 826.54 763.62 826.932 764.012C827.325 764.405 827.521 764.89 827.521 765.469C827.521 766.048 827.325 766.534 826.932 766.926C826.54 767.319 826.064 767.515 825.503 767.515ZM827.072 769.56V785H823.878V769.56H827.072ZM839.056 769.308C840.27 769.308 841.354 769.56 842.307 770.065C843.278 770.569 844.035 771.316 844.576 772.306C845.118 773.297 845.389 774.492 845.389 775.893V785H842.223V776.37C842.223 774.987 841.877 773.932 841.186 773.203C840.495 772.456 839.551 772.082 838.356 772.082C837.16 772.082 836.207 772.456 835.497 773.203C834.806 773.932 834.461 774.987 834.461 776.37V785H831.266V769.56H834.461V771.326C834.984 770.691 835.647 770.196 836.45 769.841C837.272 769.486 838.141 769.308 839.056 769.308ZM855.684 769.308C856.88 769.308 857.935 769.551 858.851 770.037C859.785 770.504 860.513 771.092 861.036 771.802V769.56H864.259V785.252C864.259 786.672 863.96 787.933 863.362 789.035C862.764 790.156 861.896 791.034 860.756 791.669C859.635 792.304 858.29 792.622 856.721 792.622C854.629 792.622 852.891 792.127 851.509 791.137C850.127 790.165 849.342 788.839 849.155 787.158H852.322C852.565 787.961 853.078 788.605 853.863 789.091C854.666 789.595 855.619 789.848 856.721 789.848C858.01 789.848 859.047 789.455 859.831 788.671C860.635 787.886 861.036 786.747 861.036 785.252V782.674C860.495 783.403 859.757 784.019 858.823 784.524C857.907 785.009 856.861 785.252 855.684 785.252C854.339 785.252 853.106 784.916 851.985 784.243C850.883 783.552 850.005 782.6 849.351 781.385C848.716 780.152 848.399 778.761 848.399 777.21C848.399 775.66 848.716 774.287 849.351 773.091C850.005 771.895 850.883 770.971 851.985 770.317C853.106 769.644 854.339 769.308 855.684 769.308ZM861.036 777.266C861.036 776.201 860.812 775.277 860.364 774.492C859.934 773.708 859.364 773.11 858.654 772.699C857.945 772.288 857.179 772.082 856.357 772.082C855.535 772.082 854.769 772.288 854.059 772.699C853.349 773.091 852.77 773.679 852.322 774.464C851.892 775.23 851.677 776.145 851.677 777.21C851.677 778.275 851.892 779.209 852.322 780.012C852.77 780.816 853.349 781.432 854.059 781.862C854.788 782.273 855.553 782.478 856.357 782.478C857.179 782.478 857.945 782.273 858.654 781.862C859.364 781.451 859.934 780.853 860.364 780.068C860.812 779.265 861.036 778.331 861.036 777.266ZM878.928 764.264V785H875.733V764.264H878.928ZM884.747 767.515C884.168 767.515 883.682 767.319 883.29 766.926C882.898 766.534 882.701 766.048 882.701 765.469C882.701 764.89 882.898 764.405 883.29 764.012C883.682 763.62 884.168 763.424 884.747 763.424C885.307 763.424 885.784 763.62 886.176 764.012C886.568 764.405 886.764 764.89 886.764 765.469C886.764 766.048 886.568 766.534 886.176 766.926C885.784 767.319 885.307 767.515 884.747 767.515ZM886.316 769.56V785H883.122V769.56H886.316ZM896.731 769.308C897.926 769.308 898.982 769.551 899.897 770.037C900.831 770.504 901.56 771.092 902.083 771.802V769.56H905.305V785.252C905.305 786.672 905.006 787.933 904.408 789.035C903.811 790.156 902.942 791.034 901.803 791.669C900.682 792.304 899.337 792.622 897.768 792.622C895.675 792.622 893.938 792.127 892.556 791.137C891.173 790.165 890.389 788.839 890.202 787.158H893.368C893.611 787.961 894.125 788.605 894.909 789.091C895.713 789.595 896.665 789.848 897.768 789.848C899.056 789.848 900.093 789.455 900.878 788.671C901.681 787.886 902.083 786.747 902.083 785.252V782.674C901.541 783.403 900.803 784.019 899.869 784.524C898.954 785.009 897.908 785.252 896.731 785.252C895.386 785.252 894.153 784.916 893.032 784.243C891.93 783.552 891.052 782.6 890.398 781.385C889.763 780.152 889.445 778.761 889.445 777.21C889.445 775.66 889.763 774.287 890.398 773.091C891.052 771.895 891.93 770.971 893.032 770.317C894.153 769.644 895.386 769.308 896.731 769.308ZM902.083 777.266C902.083 776.201 901.859 775.277 901.41 774.492C900.981 773.708 900.411 773.11 899.701 772.699C898.991 772.288 898.225 772.082 897.403 772.082C896.581 772.082 895.815 772.288 895.105 772.699C894.396 773.091 893.817 773.679 893.368 774.464C892.939 775.23 892.724 776.145 892.724 777.21C892.724 778.275 892.939 779.209 893.368 780.012C893.817 780.816 894.396 781.432 895.105 781.862C895.834 782.273 896.6 782.478 897.403 782.478C898.225 782.478 898.991 782.273 899.701 781.862C900.411 781.451 900.981 780.853 901.41 780.068C901.859 779.265 902.083 778.331 902.083 777.266ZM917.487 769.308C918.664 769.308 919.71 769.56 920.625 770.065C921.559 770.569 922.288 771.316 922.811 772.306C923.353 773.297 923.624 774.492 923.624 775.893V785H920.457V776.37C920.457 774.987 920.112 773.932 919.42 773.203C918.729 772.456 917.786 772.082 916.59 772.082C915.395 772.082 914.442 772.456 913.732 773.203C913.041 773.932 912.695 774.987 912.695 776.37V785H909.501V764.264H912.695V771.354C913.237 770.7 913.919 770.196 914.741 769.841C915.581 769.486 916.497 769.308 917.487 769.308ZM931.425 772.166V780.713C931.425 781.292 931.556 781.712 931.817 781.974C932.097 782.217 932.564 782.338 933.218 782.338H935.18V785H932.658C931.219 785 930.117 784.664 929.351 783.991C928.586 783.319 928.203 782.226 928.203 780.713V772.166H926.381V769.56H928.203V765.722H931.425V769.56H935.18V772.166H931.425Z" fill="black"/>
<path d="M115.861 476.422L0 509.449L1.27271 540.923H288.405L289.853 509.449L173.064 476.839L115.861 476.422Z" fill="#559AFF"/>
<path d="M125.196 608.312L82.8145 637.726L90.9021 659.917L142.557 644.845L199.747 660L207.039 638.817L163.51 608.377L125.196 608.312Z" fill="#559AFF"/>
<path d="M0 509.449L0.884006 531.242L116.72 504.083L115.861 476.422L0 509.449Z" fill="#4695EE"/>
<path d="M82.8145 637.726L125.196 608.312L130.532 634.156L87.5229 650.648L82.8145 637.726Z" fill="#4695EE"/>
<path d="M114.607 443.195C114.607 443.195 117.159 403.46 144.845 404.006C172.532 404.551 175.077 443.369 175.077 443.369C175.077 443.369 169.547 605.622 156.707 652.386C156.707 652.386 147.579 684.983 132.983 652.386C118.382 619.789 114.607 443.195 114.607 443.195Z" fill="#0073C1"/>
</svg>
